<?xml version="1.0" encoding="utf-8"?>
<!-- Generator: Adobe Illustrator 19.2.0, SVG Export Plug-In . SVG Version: 6.00 Build 0)  -->
<svg version="1.1" id="Capa_1" xmlns="http://www.w3.org/2000/svg" xmlns:xlink="http://www.w3.org/1999/xlink" x="0px" y="0px"
	 viewBox="0 0 36.8 36.1" style="enable-background:new 0 0 36.8 36.1;" xml:space="preserve">
<style type="text/css">
	.st0{fill-rule:evenodd;clip-rule:evenodd;}
	.st1{opacity:0.7709;}
	.st2{enable-background:new    ;}
	.st3{clip-path:url(#SVGID_12_);}
	.st4{clip-path:url(#SVGID_14_);}
	.st5{clip-path:url(#SVGID_16_);}
</style>
<g>
	<path d="M28.1,21.5c0.5,0,0.8-0.2,1-0.2c0,0.1,0,0.2,0,0.3c0.3,0,0.7-0.1,1-0.2c0-0.4,0.1-1.6,0.1-2.5v0c0-1.3-0.6-1.9-1.9-1.9
		c-0.4,0-0.7,0.1-0.8,0.1c-0.1,0.3-0.2,0.7-0.3,1c0.3-0.1,0.6-0.2,1-0.2c0.6,0,0.9,0.2,0.9,0.8c-0.2,0-0.3,0-0.6,0
		c-1,0-1.9,0.4-1.9,1.4C26.6,20.9,27.2,21.5,28.1,21.5z M28.5,19.4c0.2,0,0.4,0,0.6,0c0,0.3,0,0.8,0,1c-0.1,0.1-0.4,0.2-0.7,0.2
		c-0.5,0-0.7-0.3-0.7-0.6C27.6,19.7,28,19.4,28.5,19.4z"/>
	<path d="M25.8,16c0-0.3,0.1-0.6,0.1-1.1c-0.3,0.1-0.7,0.2-1,0.2c0,0.4,0,0.7,0,1.1C25.2,16.2,25.6,16.1,25.8,16z"/>
	<path d="M24.8,21.4c0.4,0,0.7,0,1.1-0.1c0-0.5,0-0.8,0-1.5c0-1,0-2.2,0.1-2.9c-0.4,0.1-0.8,0.3-1.1,0.3c0,0.5,0.1,1.5,0.1,3
		C24.8,20.7,24.8,21.1,24.8,21.4z"/>
	<path d="M8,19.3c0-0.9,0.6-1.4,1.3-1.4c0.3,0,0.5,0,0.8,0.2c0-0.3,0-0.7-0.1-1C9.8,17,9.5,17,9.1,17c-1.2,0-2.2,0.7-2.2,2.3
		c0,1.4,0.9,2.2,2.1,2.2c0.4,0,0.7-0.1,0.9-0.1c0.1-0.3,0.1-0.6,0.2-1c-0.3,0.1-0.5,0.2-0.9,0.2C8.5,20.6,8,20.2,8,19.3z"/>
	<path d="M11,16.2c0.4,0,0.7-0.1,1-0.2c0-0.3,0.1-0.6,0.1-1.1c-0.3,0.1-0.7,0.2-1,0.2C11,15.6,11,15.8,11,16.2z"/>
	<path d="M10.8,17.3c0,0.5,0.1,1.5,0.1,3c0,0.4,0,0.8,0,1.1c0.4,0,0.7,0,1.1-0.1c0-0.5,0-0.8,0-1.5c0-1,0-2.2,0.1-2.9
		C11.6,17.2,11.2,17.3,10.8,17.3z"/>
	<path d="M17.7,24.4c1.6,0,3-0.8,3.8-2h14.4v-0.4H21.7c0.1-0.2,0.2-0.3,0.2-0.5c0,0,0.1,0,0.1,0c0.3,0,0.6-0.1,0.7-0.1
		c0,0.1,0,0.2,0,0.3c0.4-0.1,0.7-0.2,1-0.3c0-0.6,0-1.2,0-1.7c0-1.8,0-4.2,0.1-5.1c-0.4,0.2-0.9,0.3-1.2,0.4
		c0.1,0.5,0.1,1.1,0.1,2.1C22.5,17,22.2,17,22,17c-0.3,0-0.5,0-0.7,0.1c-0.8-1.1-2.2-1.8-3.6-1.8c-1.4,0-2.6,0.6-3.5,1.6
		c0-0.4,0-0.8,0.1-1.3c-0.5,0.2-0.8,0.3-1.2,0.4c0,0.5,0,0.9,0,1.3c-0.1,0-0.2,0-0.3,0c-0.1,0.3-0.1,0.5-0.3,0.8c0.2,0,0.4,0,0.6,0
		c0,0.6-0.1,1.1-0.1,1.5c0,0.1,0,0.3,0,0.4c0,0,0,0,0,0c0,0.7,0.2,1.3,0.5,1.9H1.1v0.4h12.7C14.7,23.6,16.1,24.4,17.7,24.4z
		 M17.7,24c-1.3,0-2.5-0.6-3.3-1.6h2.3c-0.1,0.2-0.2,0.4-0.4,0.6c0.4,0.1,0.7,0.2,1,0.3c0.1-0.3,0.3-0.6,0.4-0.9h3.2
		C20.2,23.4,19,24,17.7,24z M22.1,17.9c0.3,0,0.5,0.1,0.6,0.1c0,0.7,0,1.9,0,2.4c-0.2,0-0.4,0.1-0.5,0.1c0,0,0,0-0.1,0
		c0-0.2,0.1-0.5,0.1-0.7c0-0.7-0.2-1.3-0.4-1.9C21.9,17.9,22,17.9,22.1,17.9z M21.4,18.2c0.2,0.5,0.4,1.1,0.4,1.7
		c0,0.2,0,0.4-0.1,0.6c-0.5-0.2-0.7-0.6-0.7-1.3C21,18.7,21.2,18.4,21.4,18.2z M15,20.5c-0.7,0-0.9-0.2-0.9-1.1c0-0.3,0-0.8,0.1-1.3
		c0.3,0,0.8,0,1,0c0.1-0.2,0.2-0.5,0.3-0.9c0,0,0,0,0-0.1c-0.3,0-0.6,0.1-1,0.1c0.8-0.9,1.9-1.5,3.2-1.5c1.3,0,2.5,0.6,3.2,1.5
		c-0.6,0.4-1,1.1-1,1.9c0,1.2,0.7,1.9,1.6,2.1c-0.1,0.2-0.2,0.4-0.3,0.6h-3.3c0.6-1.5,1.2-3.1,1.6-4.6c-0.3-0.1-0.6-0.2-1.1-0.3
		c-0.1,0.8-0.4,2-0.7,3h0c-0.3-1-0.7-2.1-0.9-2.9c-0.4,0.1-0.7,0.2-1.2,0.2c0.5,1.1,1.1,2.8,1.5,3.9c-0.1,0.2-0.2,0.5-0.3,0.7h-2.8
		c-0.2-0.3-0.3-0.5-0.4-0.8c0.3,0.2,0.8,0.3,1.4,0.3c0.1-0.2,0.2-0.6,0.3-0.9C15.3,20.5,15.1,20.5,15,20.5z"/>
	<path d="M35.9,12.9H1.1H0.8v0.3v11.4v0.3h0.3h34.8h0.3v-0.3V13.2v-0.3H35.9z M35.9,21.9v2.7H17.7H1.1v-2.3h0v-0.4h0v-8.7h22.7h12.1
		V21.9z"/>
</g>
</svg>
