<?xml version="1.0" encoding="utf-8"?>
<!-- Generator: Adobe Illustrator 19.2.0, SVG Export Plug-In . SVG Version: 6.00 Build 0)  -->
<svg version="1.1" id="Capa_1" xmlns="http://www.w3.org/2000/svg" xmlns:xlink="http://www.w3.org/1999/xlink" x="0px" y="0px"
	 viewBox="0 0 36.8 36.1" style="enable-background:new 0 0 36.8 36.1;" xml:space="preserve">
<style type="text/css">
	.st0{fill-rule:evenodd;clip-rule:evenodd;}
	.st1{opacity:0.7709;}
	.st2{enable-background:new    ;}
	.st3{clip-path:url(#SVGID_12_);}
	.st4{clip-path:url(#SVGID_14_);}
	.st5{clip-path:url(#SVGID_16_);}
</style>
<g>
	<g id="XMLID_6_">
		<path d="M34,6.9c0.4,0,0.8,0.4,0.8,0.8c0,0.4-0.3,0.8-0.8,0.8H13.5c-0.4,0-0.8-0.3-0.8-0.8c0-0.4,0.3-0.8,0.8-0.8H34z"/>
		<path d="M34,17.9c0.4,0,0.8,0.4,0.8,0.8c0,0.4-0.3,0.8-0.8,0.8H13.5c-0.4,0-0.8-0.3-0.8-0.8c0-0.4,0.3-0.8,0.8-0.8H34z"/>
		<path d="M34,28.3c0.4,0,0.8,0.3,0.8,0.8s-0.3,0.8-0.8,0.8H13.5c-0.4,0-0.8-0.3-0.8-0.8s0.3-0.8,0.8-0.8H34z"/>
		<path d="M8.1,25.6v6.9H1.4v-6.9H8.1z M6.6,31v-3.8H3V31H6.6z"/>
		<path d="M8.1,14.6v6.9H1.4v-6.9H8.1z M6.6,19.9v-3.8H3v3.8H6.6z"/>
		<path d="M8.1,3.5v6.9H1.4V3.5H8.1z M6.6,8.9V5.1H3v3.8H6.6z"/>
	</g>
</g>
</svg>
