<?xml version="1.0" encoding="utf-8"?>
<!-- Generator: Adobe Illustrator 21.0.0, SVG Export Plug-In . SVG Version: 6.00 Build 0)  -->
<svg version="1.1" id="Capa_1" xmlns="http://www.w3.org/2000/svg" xmlns:xlink="http://www.w3.org/1999/xlink" x="0px" y="0px"
	 viewBox="0 0 36.8 36.1" style="enable-background:new 0 0 36.8 36.1;" xml:space="preserve">
<g>
	<g id="XMLID_1_">
		<path d="M8.1,4.7c-2.7,0.9-4.6,3.1-5,6c-0.9,6.1,4.7,14,15,21.2l0.3,0.2l0.3-0.2c10.3-7.2,15.9-15.1,15-21.2
			c-0.4-2.9-2.3-5.1-5.1-6c-3.1-1-6.3,0.1-8.7,2.8l-1.5,1.7l-1.5-1.7c-1.8-2.1-4.2-3.2-6.6-3.2C9.6,4.4,8.9,4.5,8.1,4.7z M18.4,33.9
			C1.8,22.8,1.1,13.8,1.6,10.5C2.2,7,4.4,4.3,7.8,3.3C8.6,3,9.5,2.9,10.4,2.9c2.8,0,5.5,1.3,7.6,3.6l0.4,0.4l0.4-0.4
			c2.8-3.1,6.6-4.3,10.3-3.2c3.3,1,5.6,3.7,6.1,7.2C35.7,13.8,35,22.8,18.4,33.9z"/>
	</g>
</g>
</svg>
