<?xml version="1.0" encoding="utf-8"?>
<!-- Generator: Adobe Illustrator 21.0.0, SVG Export Plug-In . SVG Version: 6.00 Build 0)  -->
<svg version="1.1" id="Capa_1" xmlns="http://www.w3.org/2000/svg" xmlns:xlink="http://www.w3.org/1999/xlink" x="0px" y="0px"
	 viewBox="0 0 36.8 36.1" style="enable-background:new 0 0 36.8 36.1;" xml:space="preserve">
<g>
	<g id="XMLID_1_">
		<path d="M33.2,11.6c0.8,2,1.3,4.1,1.3,6.4s-0.4,4.4-1.3,6.4c-0.9,2-2.1,3.8-3.5,5.2c-1.5,1.4-3.2,2.6-5.2,3.5
			c-2,0.9-4.1,1.3-6.4,1.3s-4.4-0.4-6.4-1.3c-2-0.9-3.8-2-5.2-3.5C5,28.2,3.8,26.5,3,24.5c-0.9-2-1.3-4.1-1.3-6.4s0.4-4.4,1.3-6.4
			C3.7,9.7,4.9,8,6.3,6.5C7.8,5.1,9.6,3.9,11.6,3c2.2-0.9,4.4-1.4,6.5-1.4c2.3,0,4.4,0.4,6.4,1.3c2,0.9,3.8,2,5.2,3.5
			C31.2,7.8,32.4,9.6,33.2,11.6z M33.3,18.1c0-1.3-0.1-2.5-0.4-3.5l-0.1-0.4h-5.4l0.1,0.6c0.2,1.2,0.3,2.5,0.3,3.9
			c0,1.5-0.2,3.3-0.6,5l-0.1,0.6H32l0.1-0.3C32.9,22.3,33.3,20.4,33.3,18.1z M32.5,13.1l-0.3-0.7c-0.7-1.7-1.7-3.2-3-4.6
			c-1.3-1.4-2.8-2.5-4.5-3.2L23,3.7l1.1,1.5c1.4,1.9,2.5,4.5,3.1,7.4l0.1,0.4H32.5z M30.9,26.4l0.5-0.8h-4.7L26.6,26
			c-0.8,2.3-1.6,4-2.6,5.2l-1.3,1.6l1.9-0.9C27.3,30.8,29.3,28.9,30.9,26.4z M26.5,18.9c0-1.6-0.1-3-0.2-4.1l0-0.4h-7.6v10.1h7.1
			l0.1-0.4C26.3,22.2,26.5,20.5,26.5,18.9z M26,13.1l-0.1-0.6c-0.4-1.9-1.1-3.7-2.1-5.4c-1.3-2.1-2.8-3.5-4.4-3.9L18.8,3v10.1
			L26,13.1z M25.2,26.3l0.2-0.7h-6.7v7.8l0.6-0.2C21.8,32.5,23.7,30.2,25.2,26.3z M17.5,33.4v-7.8h-6.7l0.2,0.7
			c1.4,3.9,3.4,6.3,5.8,6.9L17.5,33.4z M17.5,24.5V14.4H10l-0.1,0.4c-0.2,1.1-0.2,2.4-0.2,4.1c0,1.6,0.2,3.4,0.6,5.2l0.1,0.4H17.5z
			 M17.5,13.1V3l-0.6,0.2c-1.6,0.4-3,1.6-4.5,3.9c-1,1.7-1.7,3.4-2.1,5.4l-0.1,0.6H17.5z M13.4,33l-1.3-1.7c-1.1-1.5-2-3.3-2.5-5.2
			l-0.1-0.4H4.8l0.5,0.8c1.5,2.4,3.5,4.2,6.2,5.6L13.4,33z M12.1,5.2l1.1-1.5l-1.7,0.8C10,5.2,8.6,6.2,7.1,7.7
			C5.8,9,4.8,10.4,4,12.4l-0.3,0.7h5.2L9,12.6C9.6,9.7,10.6,7.2,12.1,5.2z M9.1,24.5L9,23.9c-0.4-1.9-0.6-3.5-0.6-5
			c0-1.2,0.1-2.5,0.2-4l0-0.5H3.4l-0.1,0.4c-0.3,1-0.4,2.2-0.4,3.5c0,1.9,0.4,3.8,1.1,5.9l0.1,0.3H9.1z"/>
	</g>
</g>
</svg>
