<?xml version="1.0" encoding="utf-8"?>
<!-- Generator: Adobe Illustrator 19.2.0, SVG Export Plug-In . SVG Version: 6.00 Build 0)  -->
<svg version="1.1" id="Capa_1" xmlns="http://www.w3.org/2000/svg" xmlns:xlink="http://www.w3.org/1999/xlink" x="0px" y="0px"
	 viewBox="0 0 36.8 36.1" style="enable-background:new 0 0 36.8 36.1;" xml:space="preserve">
<style type="text/css">
	.st0{fill-rule:evenodd;clip-rule:evenodd;}
	.st1{opacity:0.7709;}
	.st2{enable-background:new    ;}
	.st3{clip-path:url(#SVGID_12_);}
	.st4{clip-path:url(#SVGID_14_);}
	.st5{clip-path:url(#SVGID_16_);}
</style>
<g id="XMLID_10_">
	<path d="M18.9,18.2c1.8,0,3.4,1.5,3.4,3.4c0,1.8-1.5,3.4-3.4,3.4c-1.8,0-3.4-1.5-3.4-3.4C15.5,19.8,17,18.2,18.9,18.2z M20.9,21.6
		c0-1.1-0.9-2-2-2s-2,0.9-2,2c0,1.1,0.9,2,2,2S20.9,22.7,20.9,21.6z"/>
	<path d="M26,10.2c3.8,2.4,6.3,6.6,6.3,11.4c0,7.4-6,13.4-13.4,13.4c-7.4,0-13.4-6-13.4-13.4c0-4.8,2.5-9,6.3-11.4h1V9.6
		c1.8-0.9,3.9-1.5,6-1.5s4.2,0.5,6,1.4v0.6H26z M31,21.6c0-6.7-5.4-12.1-12.1-12.1S6.8,14.9,6.8,21.6s5.4,12.1,12.1,12.1
		S31,28.3,31,21.6z"/>
	<path d="M26.3,8.8v1.4H26c-0.3-0.2-0.7-0.4-1-0.6V8.1C25.4,8.4,25.8,8.6,26.3,8.8z"/>
	<path d="M26.3,8.1v0.8c-0.4-0.3-0.9-0.5-1.3-0.7V8.1c0-3.2-2.7-5.9-6-5.9s-6,2.6-6,5.9v0.1c-0.5,0.2-0.9,0.4-1.3,0.7V8.1
		c0-4,3.3-7.2,7.4-7.2S26.3,4.1,26.3,8.1z"/>
	<path d="M26,10.2h-1V9.6C25.3,9.8,25.6,10,26,10.2z"/>
	<path d="M12.9,9.6v0.6h-1C12.2,10,12.5,9.8,12.9,9.6z"/>
	<path d="M12.9,8.1v1.5c-0.4,0.2-0.7,0.4-1,0.6h-0.3V8.8C12,8.6,12.4,8.4,12.9,8.1z"/>
</g>
</svg>
