<?xml version="1.0" encoding="utf-8"?>
<!-- Generator: Adobe Illustrator 21.0.0, SVG Export Plug-In . SVG Version: 6.00 Build 0)  -->
<svg version="1.1" id="Capa_1" xmlns="http://www.w3.org/2000/svg" xmlns:xlink="http://www.w3.org/1999/xlink" x="0px" y="0px"
	 viewBox="0 0 36.8 36.1" style="enable-background:new 0 0 36.8 36.1;" xml:space="preserve">
<g id="XMLID_11_">
	<g>
		<g id="XMLID_1_">
			<path d="M9.3,19.6c0-5.1,3.9-9.1,9-9.1s9,4,9,9.1s-3.9,9.1-9,9.1S9.3,24.7,9.3,19.6z M10.7,19.6c0,4.3,3.3,7.7,7.6,7.7
				s7.6-3.4,7.6-7.7s-3.3-7.7-7.6-7.7S10.7,15.3,10.7,19.6z"/>
			<path d="M1.7,8.9c0-1.8,1.3-3.2,2.9-3.2h5.6l3.1-3.6h9.7l3,3.7h5.6c1.6,0,2.9,1.4,2.9,3.2v21.9c0,1.8-1.3,3.2-2.9,3.2H4.6
				c-1.6,0-2.9-1.4-2.9-3.2V8.9z M4.6,7.2C3.8,7.2,3.1,8,3.1,9v21.9c0,1,0.7,1.8,1.5,1.8h27.1c0.8,0,1.5-0.8,1.5-1.8v-22
				c0-1-0.7-1.8-1.5-1.8h-6.4l-3-3.6H14l-3,3.7H4.6z"/>
		</g>
	</g>
</g>
</svg>
