<?xml version="1.0" encoding="utf-8"?>
<!-- Generator: Adobe Illustrator 21.0.0, SVG Export Plug-In . SVG Version: 6.00 Build 0)  -->
<svg version="1.1" id="Capa_1" xmlns="http://www.w3.org/2000/svg" xmlns:xlink="http://www.w3.org/1999/xlink" x="0px" y="0px"
	 viewBox="0 0 36.8 36.1" style="enable-background:new 0 0 36.8 36.1;" xml:space="preserve">
<g id="XMLID_13_">
	<g>
		<g id="XMLID_1_">
			<polygon points="17.9,9 17.9,19.6 26.1,19.6 26.1,20.9 16.5,20.9 16.5,9 			"/>
			<path d="M1.3,17.9C1.3,8.5,9,0.8,18.4,0.8c9.5,0,17.2,7.7,17.2,17.1c0,9.5-7.7,17.2-17.2,17.2C9,35.1,1.3,27.4,1.3,17.9z
				 M2.6,17.9c0,8.7,7.1,15.8,15.8,15.8s15.8-7.1,15.8-15.8S27.1,2.1,18.4,2.1S2.6,9.2,2.6,17.9z"/>
		</g>
	</g>
</g>
</svg>
