<?xml version="1.0" encoding="utf-8"?>
<!-- Generator: Adobe Illustrator 19.2.0, SVG Export Plug-In . SVG Version: 6.00 Build 0)  -->
<svg version="1.1" id="Capa_1" xmlns="http://www.w3.org/2000/svg" xmlns:xlink="http://www.w3.org/1999/xlink" x="0px" y="0px"
	 viewBox="0 0 36.8 36.1" style="enable-background:new 0 0 36.8 36.1;" xml:space="preserve">
<style type="text/css">
	.st0{fill-rule:evenodd;clip-rule:evenodd;}
	.st1{opacity:0.7709;}
	.st2{enable-background:new    ;}
	.st3{clip-path:url(#SVGID_12_);}
	.st4{clip-path:url(#SVGID_14_);}
	.st5{clip-path:url(#SVGID_16_);}
</style>
<path d="M34,33.7L29.3,29c0,0-0.1-0.1-0.2-0.1c3-2.9,4.9-7,4.9-11.5c0-8.8-7.2-16-16-16s-16,7.2-16,16c0,8.8,7.2,16,16,16
	c3.8,0,7.2-1.3,10-3.5c0,0.1,0.1,0.2,0.2,0.2l4.7,4.7c0.1,0.1,0.3,0.2,0.5,0.2c0.2,0,0.4-0.1,0.5-0.2C34.3,34.4,34.3,34,34,33.7z
	 M3.6,17.3c0-8,6.5-14.5,14.5-14.5s14.5,6.5,14.5,14.5c0,8-6.5,14.5-14.5,14.5S3.6,25.3,3.6,17.3z"/>
</svg>
