<?xml version="1.0" encoding="utf-8"?>
<!-- Generator: Adobe Illustrator 19.2.0, SVG Export Plug-In . SVG Version: 6.00 Build 0)  -->
<svg version="1.1" id="Capa_1" xmlns="http://www.w3.org/2000/svg" xmlns:xlink="http://www.w3.org/1999/xlink" x="0px" y="0px"
	 viewBox="0 0 36.8 36.1" style="enable-background:new 0 0 36.8 36.1;" xml:space="preserve">
<style type="text/css">
	.st0{fill-rule:evenodd;clip-rule:evenodd;}
	.st1{opacity:0.7709;}
	.st2{enable-background:new    ;}
	.st3{clip-path:url(#SVGID_12_);}
	.st4{clip-path:url(#SVGID_14_);}
	.st5{clip-path:url(#SVGID_16_);}
</style>
<g>
	<g id="XMLID_12_">
		<g>
			<path d="M17.7,2.4C20,4.8,19.9,8.8,19.9,9v16.5c0,0.5-0.4,0.8-0.8,0.8s-0.8-0.4-0.8-0.8V8.9c0-0.1,0.1-3.5-1.7-5.4
				c-0.8-0.9-1.9-1.3-3.3-1.3c-1.5,0-2.7,0.5-3.5,1.4C8,5.6,8.3,8.8,8.3,8.8V23c0,5.9,4.5,10.8,9.9,10.8c5.5,0,9.9-4.8,9.9-10.8V1.4
				c0-0.5,0.4-0.8,0.8-0.8c0.5,0,0.8,0.4,0.8,0.8V23c0,6.9-5.2,12.4-11.6,12.4c-6.4,0-11.6-5.6-11.6-12.4V8.9c0-0.1-0.3-3.9,1.9-6.4
				c1.2-1.3,2.7-1.9,4.8-1.9C15.1,0.6,16.6,1.2,17.7,2.4z"/>
		</g>
	</g>
</g>
</svg>
