<?xml version="1.0" encoding="utf-8"?>
<!-- Generator: Adobe Illustrator 19.2.0, SVG Export Plug-In . SVG Version: 6.00 Build 0)  -->
<svg version="1.1" id="Capa_1" xmlns="http://www.w3.org/2000/svg" xmlns:xlink="http://www.w3.org/1999/xlink" x="0px" y="0px"
	 viewBox="0 0 36.8 36.1" style="enable-background:new 0 0 36.8 36.1;" xml:space="preserve">
<style type="text/css">
	.st0{fill-rule:evenodd;clip-rule:evenodd;}
	.st1{opacity:0.7709;}
	.st2{enable-background:new    ;}
	.st3{clip-path:url(#SVGID_12_);}
	.st4{clip-path:url(#SVGID_14_);}
	.st5{clip-path:url(#SVGID_16_);}
</style>
<g>
	<path class="st0" d="M6,19.1C5.8,19.1,5.7,19,5.5,19c-0.2,0-0.5,0.1-1,0.2c-0.9,0.3-1.5,0.4-1.9,0.4h0c-0.3,0-0.6-0.1-0.8-0.2
		c-0.1-0.1-0.2-0.2-0.2-0.3h0l0,0.1c0.1,0.2,0.2,0.3,0.3,0.4c0.3,0.2,0.6,0.3,1,0.3c0.5,0,1.2-0.1,2-0.4c0.5-0.2,0.8-0.3,1-0.3
		c0.1,0,0.2,0,0.3,0.1l0.1,0.1h0l0-0.1C6.3,19.3,6.2,19.2,6,19.1z"/>
	<path class="st0" d="M2.7,19.4L2.7,19.4c0.2,0,0.6-0.1,1-0.2C4.4,19,5,18.9,5.5,18.9c0.3,0,0.5,0.1,0.6,0.2v0l0,0
		c-0.1-0.1-0.2-0.2-0.3-0.2c-0.3-0.1-0.5-0.2-0.7-0.2h0c-0.2,0-0.3,0-0.5,0c-0.1,0-0.6,0.1-1.3,0.4c-0.3,0.1-0.6,0.2-0.8,0.2
		c-0.1,0-0.2,0-0.3-0.1C2.1,19.1,2,19,2,19c0-0.1,0-0.1,0.1-0.2c0.2-0.1,0.4-0.1,0.6-0.1c0.5,0,0.7,0.1,0.8,0.2v0l0-0.1
		c-0.2-0.2-0.4-0.3-0.7-0.3H2.8c-0.3,0-0.5,0.1-0.6,0.2C2,18.8,2,18.9,2,19l0,0.1C2.2,19.3,2.4,19.4,2.7,19.4z"/>
	<path class="st0" d="M33.5,19c0.4,0.1,0.8,0.2,1,0.2h0c0.3,0,0.6-0.1,0.7-0.3l0-0.1c0-0.1-0.1-0.2-0.2-0.3
		c-0.1-0.1-0.3-0.2-0.6-0.2h-0.1c-0.3,0-0.5,0.1-0.7,0.3l0,0.1v0c0.1-0.1,0.3-0.2,0.8-0.2c0.2,0,0.4,0,0.6,0.1
		c0.1,0.1,0.1,0.1,0.1,0.2c0,0.1,0,0.1-0.1,0.2c-0.1,0-0.2,0.1-0.3,0.1c-0.3,0-0.5-0.1-0.8-0.2c-0.8-0.3-1.2-0.4-1.3-0.4
		c-0.2,0-0.3,0-0.4,0h0c-0.2,0-0.5,0.1-0.7,0.2c-0.1,0-0.2,0.1-0.3,0.2l0,0v0c0.1-0.1,0.3-0.2,0.6-0.2C32.2,18.6,32.8,18.7,33.5,19z
		"/>
	<path class="st0" d="M35.6,18.8c-0.1,0.1-0.1,0.3-0.2,0.3c-0.2,0.2-0.4,0.2-0.8,0.2h0c-0.4,0-1-0.1-1.9-0.4c-0.5-0.1-0.8-0.2-1-0.2
		c-0.1,0-0.3,0-0.5,0.1c-0.2,0.1-0.3,0.1-0.3,0.2l0,0.1h0l0.1-0.1c0.1-0.1,0.2-0.1,0.3-0.1c0.2,0,0.6,0.1,1,0.2
		c0.8,0.3,1.4,0.4,2,0.4c0.4,0,0.8-0.1,1-0.3C35.5,19.2,35.6,19,35.6,18.8L35.6,18.8L35.6,18.8z"/>
	<path class="st0" d="M27.2,16.6l0.9,0.3c0.5,0.2,0.6,0.3,0.6,0.5c0,0.5-0.5,0.5-1,0.5c-0.2,0-0.4,0-0.6-0.1c0-0.2-0.1-0.4-0.2-0.5
		H26c-0.2,0.3-0.3,0.9-0.2,1.3c0.5,0.2,1.3,0.3,2,0.3c1.7,0,2.3-0.8,2.3-1.8c0-0.9-0.5-1.3-1.3-1.5l-0.9-0.2
		c-0.6-0.2-0.8-0.4-0.8-0.6c0-0.3,0.3-0.4,0.7-0.4c0.2,0,0.4,0,0.6,0.1c0,0.2,0.1,0.4,0.2,0.5h0.9c0.2-0.3,0.3-0.8,0.2-1.3
		c-0.5-0.2-1.3-0.3-1.9-0.3c-1.3,0-2.2,0.7-2.2,1.7C25.8,16,26.4,16.4,27.2,16.6z M26.8,14.1c0.7-0.6,2.3-0.2,2.4-0.2l0.1,0v0.6
		h-0.1V14c-0.3-0.1-1.6-0.3-2.2,0.2c-0.2,0.2-0.3,0.4-0.3,0.8c0,0.7,0.7,0.9,1.4,1c0.6,0.1,1.3,0.3,1.5,0.9c0.2,0.5,0.1,0.9-0.3,1.3
		c-0.3,0.3-0.8,0.4-1.3,0.4c-0.4,0-0.9-0.1-1.4-0.3l0,0v-0.6h0.1v0.5c1,0.4,2,0.4,2.5-0.1c0.3-0.3,0.4-0.7,0.2-1.1
		c-0.2-0.5-0.8-0.6-1.4-0.8c-0.7-0.2-1.5-0.3-1.5-1.2C26.4,14.6,26.5,14.3,26.8,14.1z"/>
	<path class="st0" d="M22.6,18.1l0.1,0.8H23c0.1-0.4,0.2-0.9,0.6-1.1l0,0h0.2v-3.7H23V14h1v3.9h0.5V19h0.7l0.1-0.8
		c-0.1-0.1-0.4-0.3-0.6-0.4v-4.3c-0.6-0.1-1.5,0-2,0.1l-0.1,0.8c0.1,0.2,0.4,0.3,0.6,0.4v3C22.9,17.9,22.7,18,22.6,18.1z"/>
	<path class="st0" d="M23.9,12.2L23.9,12.2c0.2,0,0.2-0.1,0.2-0.1c0-0.1-0.1-0.2-0.2-0.2h-0.1c-0.1,0-0.2,0.1-0.2,0.2
		C23.7,12.1,23.8,12.2,23.9,12.2z"/>
	<path class="st0" d="M23.9,12.8c0.6,0,0.9-0.2,0.9-0.8c0-0.6-0.4-0.8-0.9-0.8c-0.6,0-0.9,0.2-0.9,0.8C23,12.6,23.4,12.8,23.9,12.8z
		 M23.9,11.7L23.9,11.7c0.2,0,0.4,0.1,0.4,0.3c0,0.2-0.1,0.3-0.3,0.3h-0.1c-0.2,0-0.3-0.1-0.3-0.3C23.6,11.9,23.7,11.7,23.9,11.7z"
		/>
	<path class="st0" d="M17.9,16.7c-0.2,0.2-0.3,0.5-0.3,0.8c0,0.4,0.3,0.8,0.8,0.9c0.8,0.2,1.9-0.2,2.3-1.1v-0.9h-1.9
		C18.8,16.3,18.3,16.3,17.9,16.7z M20,16.7v0.9c-0.1,0.1-0.4,0.3-0.9,0.3c-0.4,0-0.7-0.3-0.7-0.6c0-0.4,0.2-0.6,0.8-0.6H20z"/>
	<path class="st0" d="M21.5,15.3c0-1.4-0.7-1.9-2.1-1.9c-0.9,0-1.8,0.3-2.3,0.5c0,0.5,0,1,0.2,1.3h1.1c0.1-0.2,0.1-0.5,0.1-0.7
		c0.2-0.1,0.3-0.1,0.6-0.1c0.6,0,0.9,0.3,0.9,0.8v0.5h-1.2c-1.3,0-1.9,0.6-1.9,1.5c0,1.1,0.9,1.6,1.8,1.6c1.1,0,1.5-0.4,1.7-0.7
		c0.1,0.4,0.2,0.7,0.2,0.7c1,0,1.6-0.3,1.6-0.3v-0.9c-0.2-0.1-0.4-0.1-0.6-0.2V15.3z M21.6,18.3v0.1h-0.8v-1c-0.4,0.7-1.2,1-2,1
		c-0.1,0-0.3,0-0.4,0c-0.6-0.1-0.9-0.5-0.9-1c0-0.4,0.1-0.7,0.4-0.9c0.4-0.4,1-0.4,1-0.4h1.9v-0.9c0-0.4,0-1.1-1.1-1.3
		c-1-0.2-1.6,0.1-1.7,0.2v0.7h-0.1v-0.8l0,0c0,0,0.7-0.4,1.9-0.2c1.2,0.2,1.2,1.1,1.2,1.4v3H21.6z"/>
	<path class="st0" d="M7.3,18.1L7.4,19H10l0.1-0.9C10,18,9.8,17.9,9.5,17.8v-2.8c0.2-0.2,0.6-0.4,1-0.4c0.5,0,0.8,0.2,0.8,1v2.2
		c-0.3,0.1-0.5,0.2-0.6,0.4l0.1,0.9h2.6l0.1-0.9c-0.1-0.1-0.4-0.3-0.6-0.4V16c0-0.4,0-0.7-0.1-1c0.3-0.2,0.7-0.4,1-0.4
		c0.5,0,0.8,0.2,0.8,1v2.2c-0.3,0.1-0.5,0.2-0.6,0.4L14,19h2.6l0.1-0.9c-0.1-0.1-0.4-0.3-0.6-0.4V16c0-2-0.4-2.6-2.1-2.6
		c-0.5,0-1.2,0.3-1.6,0.6c-0.3-0.5-0.8-0.6-1.7-0.6c-0.4,0-1,0.2-1.4,0.5v-0.6c-0.6-0.1-1.3,0-1.9,0.1l-0.1,0.9
		c0.1,0.2,0.4,0.3,0.6,0.4v3.1C7.7,17.9,7.4,18,7.3,18.1z M7.9,13.9v-0.1h0.8v1c0.2-0.4,0.7-0.9,1.9-0.9c1.1,0,1.4,0.7,1.4,1
		c0.1-0.1,0.1-0.3,0.3-0.4c0.3-0.3,0.8-0.5,1.4-0.5c0.6,0,1,0.2,1.3,0.5c0.4,0.5,0.4,1.1,0.4,1.2v2.6h0.5v0.1h-1.1v-0.1h0.5v-2.6
		c0,0,0.1-0.6-0.3-1.1c-0.3-0.3-0.7-0.4-1.2-0.4c-0.6,0-1,0.1-1.3,0.4c-0.3,0.3-0.3,0.7-0.3,0.8l0,2.9h0.5v0.1h-1.1v-0.1h0.5v-2.8
		v-0.1V15c0,0-0.1-1-1.3-1c-1.7,0-1.9,1.2-1.9,1.2v3h0.5v0.1H8.1v-0.1h0.5v-4.3H7.9z"/>
	<path class="st0" d="M28.3,19.8c-1.2,0-1.7,0.6-1.7,2.1c0,1.5,0.6,2.2,1.8,2.2c1.2,0,1.8-0.7,1.8-2.2
		C30.1,20.5,29.6,19.8,28.3,19.8z M28.4,23.7c-0.6,0-1-0.5-1-1.7c0-1.2,0.4-1.6,1-1.6c0.7,0,1.1,0.5,1.1,1.7
		C29.4,23.2,29.1,23.7,28.4,23.7z"/>
	<path class="st0" d="M28.4,19.2c-1.7,0-2.6,1-2.6,2.8c0,1.9,0.8,2.7,2.5,2.7c1.7,0,2.7-1.1,2.7-2.9C31,20,30.1,19.2,28.4,19.2z
		 M28.4,24.3c-0.9,0-1.9-0.4-1.9-2.3c0-1.5,0.6-2.2,1.9-2.2c1.3,0,2,0.7,2,2.3C30.3,23.5,29.7,24.3,28.4,24.3z"/>
	<path class="st0" d="M10.8,19.2c-0.5,0-1.1,0.2-1.5,0.5v-0.5c-0.6-0.1-1.3,0-1.9,0.1l-0.1,0.8c0.1,0.2,0.3,0.3,0.6,0.4v5.8
		c-0.3,0.1-0.5,0.2-0.6,0.4l0.1,0.8h2.7l0.1-0.8c-0.1-0.2-0.5-0.3-0.8-0.4v-1.6c0.2,0.1,0.5,0.1,0.8,0.1c1.3,0,2.6-0.8,2.6-2.9
		C12.9,19.9,12.2,19.2,10.8,19.2z M11.6,23.8c-0.4,0.4-1,0.6-1.4,0.6c0,0,0,0-0.1,0c-0.3,0-1-0.1-1.4-0.6v2.9h0.9v0.1H8.1v-0.1h0.5
		v-6.8H7.7v-0.1h1V21c0.2-0.5,0.7-1.3,1.7-1.3h0c0.2,0,0.8,0,1.2,0.4c0.4,0.4,0.5,0.9,0.5,1.7C12.2,22.7,12,23.3,11.6,23.8z"/>
	<path class="st0" d="M10.5,19.9L10.5,19.9c-1.5,0-1.8,1.5-1.8,1.6v2c0.3,0.8,1.5,0.7,1.5,0.7c0.6,0,1.9-0.3,1.9-2.3
		c0-0.8-0.2-1.3-0.5-1.6C11.2,19.9,10.7,19.9,10.5,19.9z M10.2,23.7c-0.2,0-0.5,0-0.7-0.1v-2.9c0.3-0.2,0.7-0.3,1.1-0.3
		c0.6,0,0.8,0.3,0.8,1.5C11.3,22.9,10.9,23.7,10.2,23.7z"/>
	<path class="st0" d="M17.2,20.9c-0.1-0.7-0.6-1.1-1.4-1.1l-0.2,0c-0.6,0-1.2,0.4-1.5,1.1c-0.2,0.3-0.2,0.6-0.2,1c0.4,0,2.7,0,2.9,0
		c0.1,0,0.2,0,0.3-0.1C17.2,21.6,17.3,21.3,17.2,20.9z M16.6,21.4l-1.7,0.1c0.1-0.8,0.4-1.1,1-1.1C16.4,20.3,16.7,20.7,16.6,21.4z"
		/>
	<path class="st0" d="M18,21.6c0-1.9-0.9-2.3-2.1-2.3c-1.3,0-2.6,0.7-2.6,2.9c0,1.7,0.9,2.7,2.6,2.7c1.4,0,2-0.7,2-0.7l-0.3-0.9
		c0,0-0.5,0.3-1.3,0.3c-0.9,0-1.3-0.3-1.3-1.2h2.3C17.7,22.3,18,22,18,21.6z M13.9,22c0,0.5,0.2,1,0.4,1.4c0.3,0.4,1.3,1.2,3,0.5
		l0.1,0.1c-0.5,0.2-1,0.3-1.4,0.3c-0.9,0-1.5-0.4-1.8-0.8c-0.5-0.8-0.6-1.8-0.2-2.6c0.3-0.7,1-1.1,1.6-1.2c1,0,1.5,0.3,1.7,1.2
		c0.1,0.5,0.1,0.8-0.1,0.9C17.1,21.9,17,22,16.9,22C16.6,22,14.4,22,13.9,22z"/>
	<path class="st0" d="M20.2,19.9v-0.7c-0.6-0.1-1.3,0-1.9,0.1l-0.1,0.8c0.1,0.2,0.3,0.3,0.6,0.4v3c-0.3,0.1-0.5,0.2-0.6,0.4l0.1,0.8
		h3.1l0.1-0.8c-0.2-0.2-0.7-0.4-1.2-0.4v-2.5c0.2-0.2,0.7-0.3,1.1-0.3c0.2,0,0.3,0,0.5,0l0-1.4c-0.1,0-0.2-0.1-0.4-0.1
		C21.1,19.2,20.6,19.5,20.2,19.9z M21.5,20c-1.5,0-1.8,1.1-1.8,1.2V24h1v0.1h-1.6V24h0.5v-4.1h-0.7v-0.1h0.9v1.2
		c0.2-0.4,0.7-1,1.8-1V20z"/>
	<path class="st0" d="M24.9,23.8c-0.5,0-0.6-0.4-0.6-0.7v-3h1.5v-0.7h-1.6V18h-0.6c-0.4,0.3-0.5,0.7-0.5,1.1l0,0.1l-0.1,0
		c-0.1,0-0.5,0.2-0.6,0.3l0.1,0.5h0.5v3.3c0,0.9,0.4,1.3,1.2,1.3c0.6,0,1.1-0.1,1.6-0.4l-0.2-0.6C25.4,23.7,25.1,23.8,24.9,23.8z
		 M24.6,24.2c-0.3,0-0.5-0.1-0.7-0.2c-0.3-0.2-0.3-0.6-0.3-0.6v-3.7h-0.7v-0.1h0.7v-1h0.1v1h1.7v0.1h-1.7v3.7c0,0,0,0.3,0.2,0.5
		c0.3,0.2,0.8,0.2,1.5,0l0,0.1C25.2,24.2,24.9,24.2,24.6,24.2z"/>
</g>
</svg>
