<?xml version="1.0" encoding="utf-8"?>
<!-- Generator: Adobe Illustrator 19.2.0, SVG Export Plug-In . SVG Version: 6.00 Build 0)  -->
<svg version="1.1" id="Capa_1" xmlns="http://www.w3.org/2000/svg" xmlns:xlink="http://www.w3.org/1999/xlink" x="0px" y="0px"
	 viewBox="0 0 36.8 36.1" style="enable-background:new 0 0 36.8 36.1;" xml:space="preserve">
<style type="text/css">
	.st0{fill-rule:evenodd;clip-rule:evenodd;}
	.st1{opacity:0.7709;}
	.st2{enable-background:new    ;}
	.st3{clip-path:url(#SVGID_12_);}
	.st4{clip-path:url(#SVGID_14_);}
	.st5{clip-path:url(#SVGID_16_);}
</style>
<path d="M18.5,23.5c-3.1,0-5.5-2.5-5.5-5.5c0-3.1,2.5-5.5,5.5-5.5c3.1,0,5.5,2.5,5.5,5.5C24.1,21.1,21.6,23.5,18.5,23.5 M18.5,9.5
	c-4.7,0-8.5,3.8-8.5,8.5c0,4.7,3.8,8.5,8.5,8.5c4.7,0,8.5-3.8,8.5-8.5C27.1,13.3,23.2,9.5,18.5,9.5 M27.4,7.2c-1.1,0-2,0.9-2,2
	c0,1.1,0.9,2,2,2s2-0.9,2-2C29.4,8.1,28.5,7.2,27.4,7.2 M20.3,31.7c-2.3,0-5.1-0.1-8.5-0.2c-1.6-0.1-2.5-0.3-3.1-0.6
	c-1.5-0.6-2.6-1.7-3.2-3.1c-1-2.5-0.7-14.5-0.6-16.5c0.1-1.9,0.5-3.6,1.8-5c1.3-1.3,2.8-2,10-2c2.2,0,5,0.1,8.4,0.2
	c1.9,0.1,3.7,0.5,5,1.8c1.7,1.7,2.5,3.8,1.8,18.4c-0.1,1.6-0.3,2.5-0.6,3.1C30.3,30.7,28,31.7,20.3,31.7 M19.4,1.3
	c-2.2,0-4.7,0.1-7.7,0.2C9,1.7,6.6,2.3,4.7,4.2c-1.9,1.9-2.6,4.3-2.7,7c-0.1,1.7-0.5,14.4,0.8,17.7c0.9,2.2,2.6,4,4.9,4.8
	c1.1,0.4,2.3,0.7,4,0.8c3.2,0.1,6,0.2,8.4,0.2c8.6,0,12.3-1.2,14.2-5.9c0.4-1.1,0.7-2.3,0.8-4C35.7,10,34.9,6.8,32.4,4.2
	C30.7,2.6,28.8,1.3,19.4,1.3"/>
</svg>
