<?xml version="1.0" encoding="utf-8"?>
<!-- Generator: Adobe Illustrator 21.0.0, SVG Export Plug-In . SVG Version: 6.00 Build 0)  -->
<svg version="1.1" id="Capa_1" xmlns="http://www.w3.org/2000/svg" xmlns:xlink="http://www.w3.org/1999/xlink" x="0px" y="0px"
	 viewBox="0 0 36.8 36.1" style="enable-background:new 0 0 36.8 36.1;" xml:space="preserve">
<polygon points="30.3,33.2 5.1,33.2 5.1,11.2 6.2,11.2 6.2,32.1 29.3,32.1 29.3,11.2 30.3,11.2 "/>
<path d="M21.7,26.5h-7c-0.3,0-0.5-0.2-0.5-0.5s0.2-0.5,0.5-0.5h7c0.3,0,0.5,0.2,0.5,0.5S22,26.5,21.7,26.5z"/>
<path d="M35,15.2c-0.1,0-0.2,0-0.3-0.1L18.2,3.4L1.8,15.1c-0.2,0.2-0.6,0.1-0.8-0.1c-0.2-0.2-0.1-0.6,0.1-0.8L17.9,2.3
	c0.2-0.1,0.4-0.1,0.6,0l16.8,11.9c0.2,0.2,0.3,0.5,0.1,0.8C35.3,15.2,35.2,15.2,35,15.2z"/>
</svg>
