<?xml version="1.0" encoding="utf-8"?>
<!-- Generator: Adobe Illustrator 19.2.0, SVG Export Plug-In . SVG Version: 6.00 Build 0)  -->
<svg version="1.1" id="Capa_1" xmlns="http://www.w3.org/2000/svg" xmlns:xlink="http://www.w3.org/1999/xlink" x="0px" y="0px"
	 viewBox="0 0 36.8 36.1" style="enable-background:new 0 0 36.8 36.1;" xml:space="preserve">
<style type="text/css">
	.st0{fill-rule:evenodd;clip-rule:evenodd;}
	.st1{opacity:0.7709;}
	.st2{enable-background:new    ;}
	.st3{clip-path:url(#SVGID_12_);}
	.st4{clip-path:url(#SVGID_14_);}
	.st5{clip-path:url(#SVGID_16_);}
</style>
<g>
	<path d="M26.3,15.3c3.4,0,6.1-2.7,6.1-6c0-3.3-2.7-6-6.1-6c-3.4,0-6.1,2.7-6.1,6C20.2,12.6,22.9,15.3,26.3,15.3z M26.3,4.8
		c2.5,0,4.6,2,4.6,4.5c0,2.5-2.1,4.5-4.6,4.5c-2.5,0-4.6-2-4.6-4.5C21.7,6.8,23.8,4.8,26.3,4.8z"/>
	<path d="M26.3,19.7c-3.4,0-6.1,2.7-6.1,6c0,3.3,2.7,6,6.1,6c3.4,0,6.1-2.7,6.1-6C32.4,22.4,29.7,19.7,26.3,19.7z M26.3,30.2
		c-2.5,0-4.6-2-4.6-4.5c0-2.5,2.1-4.5,4.6-4.5c2.5,0,4.6,2,4.6,4.5C30.9,28.2,28.8,30.2,26.3,30.2z"/>
	<path d="M9.5,19.7c-3.4,0-6.1,2.7-6.1,6c0,3.3,2.7,6,6.1,6s6.1-2.7,6.1-6C15.6,22.4,12.9,19.7,9.5,19.7z M9.5,30.2
		c-2.5,0-4.6-2-4.6-4.5c0-2.5,2.1-4.5,4.6-4.5s4.6,2,4.6,4.5C14.1,28.2,12,30.2,9.5,30.2z"/>
	<path d="M9.5,3.2c-3.4,0-6.1,2.7-6.1,6c0,3.3,2.7,6,6.1,6s6.1-2.7,6.1-6C15.6,5.9,12.9,3.2,9.5,3.2z M9.5,13.7
		c-2.5,0-4.6-2-4.6-4.5c0-2.5,2.1-4.5,4.6-4.5s4.6,2,4.6,4.5C14.1,11.7,12,13.7,9.5,13.7z"/>
</g>
</svg>
