<?xml version="1.0" encoding="utf-8"?>
<!-- Generator: Adobe Illustrator 19.2.0, SVG Export Plug-In . SVG Version: 6.00 Build 0)  -->
<svg version="1.1" id="Capa_1" xmlns="http://www.w3.org/2000/svg" xmlns:xlink="http://www.w3.org/1999/xlink" x="0px" y="0px"
	 viewBox="0 0 36.8 36.1" style="enable-background:new 0 0 36.8 36.1;" xml:space="preserve">
<style type="text/css">
	.st0{fill-rule:evenodd;clip-rule:evenodd;}
	.st1{opacity:0.7709;}
	.st2{enable-background:new    ;}
	.st3{clip-path:url(#SVGID_12_);}
	.st4{clip-path:url(#SVGID_14_);}
	.st5{clip-path:url(#SVGID_16_);}
</style>
<g>
	<path d="M34.8,17.5c-0.8,0-1.5,0.6-1.7,1.4c-0.1,0.8,0.5,1.4,1.4,1.4c0.8,0,1.5-0.6,1.7-1.4C36.3,18.1,35.6,17.5,34.8,17.5z
		 M35.2,18.9c-0.1,0.4-0.3,0.6-0.6,0.6c-0.3,0-0.6-0.2-0.6-0.6c0.1-0.4,0.3-0.6,0.6-0.6C34.9,18.3,35.3,18.5,35.2,18.9z"/>
	<path d="M30.6,18.9c-0.1,0.6,0.3,1.2,0.9,1.4l-0.1,0.6l0.2,0c0.1,0,0.2-0.1,0.2-0.2c0.1-0.1,0.2-0.3,0.2-0.4c0.5,0,0.6-0.3,0.7-0.6
		c0-0.1,0-0.2-0.1-0.2c-0.2,0.1-0.4,0.1-0.6,0c-0.3,0-0.5-0.3-0.5-0.6c0.1-0.5,0.4-0.6,0.7-0.6c0.5,0,0.8,0.2,0.8-0.6
		C32,17.1,30.7,17.7,30.6,18.9z"/>
	<path d="M28.8,17.5c-0.7,0-1.4,0.5-1.5,1.4c0,0,0,0.1,0,0.1v0.2c0,0.7,0.6,1.1,1.3,1.1c0.1,0,0.2,0,0.3,0c0.1,0,0.3,0,0.4-0.1
		c0.5-0.1,0.6-0.5,0.5-0.8c0,0-0.1-0.2-0.2-0.2c-0.2,0.3-0.5,0.3-0.7,0.3c-0.1,0-0.1,0-0.2,0c-0.2,0-0.4-0.3-0.4-0.6l0.6,0h1.5
		c0,0,0-0.1,0-0.1v-0.4C30.2,17.8,29.5,17.4,28.8,17.5z M28.3,18.5L28.3,18.5l0.1-0.2l0.1-0.1l0.1,0l0.1,0l0.1,0l0.1,0h0l0,0l0.1,0
		l0.1,0l0.1,0l0.1,0l0.1,0l0.1,0.1l0,0.1l0,0.1H28.3z"/>
	<path d="M26.3,17.9l0.1-0.4h-0.5c-0.2,0-0.4,0.2-0.5,0.4c0,0,0,0.1,0,0.1l-0.4,2.2h0.5c0.2,0,0.4-0.2,0.5-0.4c0-0.1,0-0.1,0.1-0.2
		l0.2-1.1c0.1-0.4,0.4-0.5,0.9-0.3l0.1-0.8C26.8,17.5,26.5,17.5,26.3,17.9z"/>
	<path d="M23.7,17.5c-0.2,0-0.4,0.1-0.5,0.1c-0.1,0.1-0.3,0.2-0.4,0.3l0.1-0.4h-0.5c-0.2,0-0.4,0.2-0.5,0.4c0,0,0,0.1-0.1,0.2
		l-0.5,3h0.5c0.2,0,0.4-0.2,0.5-0.4c0,0,0-0.1,0-0.2l0.1-0.6c0.2,0.2,0.4,0.3,0.7,0.3c0.1,0,0.1,0,0.2,0c0.6,0,1.2-0.6,1.3-1.4
		c0-0.1,0-0.1,0-0.2v-0.1C24.7,18,24.3,17.5,23.7,17.5z M23.7,18.9c0,0.3-0.3,0.6-0.6,0.6l-0.1,0c-0.3,0-0.5-0.3-0.5-0.6
		c0-0.3,0.3-0.6,0.6-0.6l0.1,0C23.5,18.3,23.8,18.6,23.7,18.9z"/>
	<path d="M20,18c0,0,0,0.1-0.1,0.1l-0.4,2.2h0.5c0.2,0,0.4-0.2,0.5-0.4c0-0.1,0-0.1,0.1-0.2l0.4-2.2h-0.5C20.3,17.6,20.1,17.8,20,18
		z"/>
	<ellipse cx="20.7" cy="16.8" rx="0.5" ry="0.5"/>
	<path d="M18.4,17.5c-0.4,0-0.7,0.2-0.9,0.5l0.1-0.5H17c-0.2,0-0.4,0.2-0.5,0.4c-0.1,0.1-0.1,0.5-0.1,0.6c0,0.2-0.1,0.4-0.1,0.6
		c-0.1,0.4-0.1,0.8-0.2,1.2h0.5c0.2,0,0.4-0.2,0.5-0.4c0-0.1,0.1-0.5,0.1-0.6c0-0.2,0.1-0.4,0.1-0.6c0-0.2,0.2-0.4,0.4-0.4
		c0.1,0,0.2,0,0.3,0.1c0.1,0.1,0.1,0.2,0.1,0.3l-0.3,1.6h0.5c0.2,0,0.4-0.2,0.5-0.4c0.1-0.1,0.1-0.3,0.1-0.4c0-0.1,0-0.3,0.1-0.4
		c0-0.3,0.1-0.5,0.1-0.8C19.3,17.8,18.8,17.5,18.4,17.5z"/>
	<ellipse cx="15.5" cy="16.8" rx="0.6" ry="0.5"/>
	<path d="M14.9,18c0,0,0,0.1-0.1,0.1l-0.4,2.2H15c0.2,0,0.4-0.2,0.5-0.4c0,0,0-0.1,0-0.2l0.4-2.2h-0.5C15.2,17.6,15,17.8,14.9,18z"
		/>
	<path d="M13.3,17.5c-0.4,0-0.7,0.2-1,0.4c-0.2-0.3-0.5-0.5-0.8-0.4c-0.4,0-0.7,0.2-0.9,0.5l0.1-0.5h-0.5c-0.2,0-0.4,0.2-0.5,0.4
		c0,0,0,0.1,0,0.1l-0.4,2.2h0.5c0.2,0,0.4-0.2,0.5-0.4c0-0.1,0-0.1,0-0.2l0.2-1.1c0-0.2,0.2-0.4,0.4-0.4c0.1,0,0.2,0,0.3,0.1
		c0.1,0.1,0.1,0.2,0.1,0.3l-0.3,1.6h0.5c0.2,0,0.4-0.2,0.5-0.4c0-0.1,0-0.1,0.1-0.2l0.2-1.1c0.1-0.2,0.2-0.3,0.4-0.3
		c0.1,0,0.2,0,0.3,0.1c0.1,0.1,0.1,0.2,0.1,0.3l-0.3,1.6h0.5c0.2,0,0.4-0.2,0.5-0.4c0,0,0-0.1,0.1-0.2l0.2-1.4
		C14.3,17.8,13.8,17.5,13.3,17.5z"/>
	<path d="M3.7,20.2c0.2-0.5,0.4-0.9,0.6-1.4c0,0.4,0,0.8,0,1.4c0,0.2,0.7,0.2,0.8,0c0.3-0.5,0.6-0.9,0.9-1.4C6,19.2,6,19.6,5.9,20.1
		c0,0.4,0.7,0.4,0.8,0c0.1-0.9,0.3-1.8,0.5-2.7C7.3,17,6.5,17,6.3,17.2l-1.2,1.6c0-0.5,0-0.8,0-1.5c0-0.3-0.7-0.4-0.9-0.1
		c-0.6,0.8-1,1.7-1.3,2.6C2.7,20.3,3.5,20.5,3.7,20.2z"/>
	<path d="M1.9,17.3l-0.7,3.8h5.2h0c0.6,0,1.1-0.5,1.2-1.1l0.7-3.8H3.2C2.6,16.3,2,16.7,1.9,17.3z M1.6,20.8l0.6-3.5
		c0.1-0.4,0.5-0.8,0.9-0.8c-0.3,0.2-0.4,0.5-0.5,0.8L2,20.8H1.6z M3.9,16.5H8L7.3,20c-0.1,0.5-0.5,0.8-0.9,0.8H2.3l0.6-3.5
		C3,16.9,3.4,16.6,3.9,16.5z"/>
</g>
</svg>
