<?xml version="1.0" encoding="utf-8"?>
<!-- Generator: Adobe Illustrator 19.2.0, SVG Export Plug-In . SVG Version: 6.00 Build 0)  -->
<svg version="1.1" id="Capa_1" xmlns="http://www.w3.org/2000/svg" xmlns:xlink="http://www.w3.org/1999/xlink" x="0px" y="0px"
	 viewBox="0 0 36.8 36.1" style="enable-background:new 0 0 36.8 36.1;" xml:space="preserve">
<style type="text/css">
	.st0{fill-rule:evenodd;clip-rule:evenodd;}
	.st1{opacity:0.7709;}
	.st2{enable-background:new    ;}
	.st3{clip-path:url(#SVGID_12_);}
	.st4{clip-path:url(#SVGID_14_);}
	.st5{clip-path:url(#SVGID_16_);}
</style>
<g>
	<path d="M30.5,1.6c-0.7-0.6-1.5-0.6-1.9-0.5c0,0-0.1,0-0.1,0H8.9c0,0-0.1,0-0.1,0C8.4,1.1,7.6,1,6.9,1.6C6.5,2,6.2,2.6,6.2,3.2
		v29.6c0,1,0.6,1.9,1.4,2.3c0.4,0.3,0.8,0.5,1.3,0.5c0.4,0,0.8-0.1,1.1-0.4l8.6-6.6l8.6,6.6c0.3,0.3,0.7,0.4,1.1,0.4
		c0.5,0,0.9-0.2,1.3-0.5c0.8-0.4,1.4-1.3,1.4-2.3V3.2C31.1,2.6,30.9,2,30.5,1.6z M27.4,4.9v25.7L20,24.9c-0.4-0.3-0.8-0.4-1.3-0.4
		c-0.5,0-0.9,0.1-1.3,0.4L10,30.5V4.9H27.4z"/>
	<path d="M14.9,15.9h1.9v1.8c0,1,0.8,1.9,1.9,1.9c1,0,1.9-0.8,1.9-1.9v-1.8h2.2c1,0,1.9-0.8,1.9-1.9s-0.8-1.9-1.9-1.9h-2.2V9.9
		c0-1-0.8-1.9-1.9-1.9c-1,0-1.9,0.8-1.9,1.9v2.2h-1.9c-1,0-1.9,0.8-1.9,1.9S13.9,15.9,14.9,15.9z"/>
</g>
</svg>
