<?xml version="1.0" encoding="utf-8"?>
<!-- Generator: Adobe Illustrator 19.2.0, SVG Export Plug-In . SVG Version: 6.00 Build 0)  -->
<svg version="1.1" id="Capa_1" xmlns="http://www.w3.org/2000/svg" xmlns:xlink="http://www.w3.org/1999/xlink" x="0px" y="0px"
	 viewBox="0 0 36.8 36.1" style="enable-background:new 0 0 36.8 36.1;" xml:space="preserve">
<style type="text/css">
	.st0{fill-rule:evenodd;clip-rule:evenodd;}
	.st1{opacity:0.7709;}
	.st2{enable-background:new    ;}
	.st3{clip-path:url(#SVGID_12_);}
	.st4{clip-path:url(#SVGID_14_);}
	.st5{clip-path:url(#SVGID_16_);}
</style>
<g>
	<path d="M18.2,33.9c-4.6,0-8.9-1.8-12.1-5.1c-6.7-6.8-6.7-17.7,0-24.5C6.4,4,6.9,4,7.2,4.3c0.3,0.3,0.3,0.8,0,1.1
		c-6.1,6.2-6.1,16.2,0,22.4c3,3,6.9,4.6,11.1,4.6s8.1-1.6,11.1-4.6c6.1-6.2,6.1-16.2,0-22.4c-0.3-0.3-0.3-0.8,0-1.1
		c0.3-0.3,0.8-0.3,1.1,0c6.7,6.8,6.7,17.7,0,24.5C27.1,32.1,22.8,33.9,18.2,33.9z"/>
	<path d="M18.2,19c-0.4,0-0.7-0.3-0.7-0.7V0.7c0-0.4,0.3-0.7,0.7-0.7C18.7,0,19,0.3,19,0.7v17.5C19,18.7,18.7,19,18.2,19z"/>
</g>
</svg>
