<?xml version="1.0" encoding="utf-8"?>
<!-- Generator: Adobe Illustrator 19.2.0, SVG Export Plug-In . SVG Version: 6.00 Build 0)  -->
<svg version="1.1" id="Capa_1" xmlns="http://www.w3.org/2000/svg" xmlns:xlink="http://www.w3.org/1999/xlink" x="0px" y="0px"
	 viewBox="0 0 36.8 36.1" style="enable-background:new 0 0 36.8 36.1;" xml:space="preserve">
<style type="text/css">
	.st0{fill-rule:evenodd;clip-rule:evenodd;}
	.st1{opacity:0.7709;}
	.st2{enable-background:new    ;}
	.st3{clip-path:url(#SVGID_12_);}
	.st4{clip-path:url(#SVGID_14_);}
	.st5{clip-path:url(#SVGID_16_);}
</style>
<g>
	<path d="M18.1,23.4h1.4c3.4,0,6.1-2.7,6.1-6.1v-10c0-3.4-2.8-6.1-6.1-6.1h-1.4c-3.4,0-6.1,2.7-6.1,6.1v10
		C11.9,20.7,14.7,23.4,18.1,23.4z M15.5,7.3c0-1.4,1.1-2.5,2.5-2.5h1.4c1.4,0,2.5,1.1,2.5,2.5v10c0,1.4-1.1,2.5-2.5,2.5h-1.4
		c-1.4,0-2.5-1.1-2.5-2.5V7.3z"/>
	<path d="M30.7,18c0-1-0.8-1.8-1.8-1.8S27.1,17,27.1,18c0,3.7-3.7,6.8-8.3,6.8s-8.3-3-8.3-6.8c0-1-0.8-1.8-1.8-1.8S6.9,17,6.9,18
		c0,5.2,4.4,9.5,10.1,10.3v3h-5.4c-1,0-1.8,0.8-1.8,1.8c0,1,0.8,1.8,1.8,1.8H26c1,0,1.8-0.8,1.8-1.8c0-1-0.8-1.8-1.8-1.8h-5.4v-3
		C26.3,27.5,30.7,23.2,30.7,18z"/>
</g>
</svg>
