<?xml version="1.0" encoding="utf-8"?>
<!-- Generator: Adobe Illustrator 19.2.0, SVG Export Plug-In . SVG Version: 6.00 Build 0)  -->
<svg version="1.1" id="Capa_1" xmlns="http://www.w3.org/2000/svg" xmlns:xlink="http://www.w3.org/1999/xlink" x="0px" y="0px"
	 viewBox="0 0 36.8 36.1" style="enable-background:new 0 0 36.8 36.1;" xml:space="preserve">
<style type="text/css">
	.st0{fill-rule:evenodd;clip-rule:evenodd;}
	.st1{opacity:0.7709;}
	.st2{enable-background:new    ;}
	.st3{clip-path:url(#SVGID_12_);}
	.st4{clip-path:url(#SVGID_14_);}
	.st5{clip-path:url(#SVGID_16_);}
</style>
<g>
	<path d="M18,35C8.8,35,1.4,27.6,1.4,18.6c0-7.3,5-13.8,12-15.8c0.4-0.1,0.8,0.1,0.9,0.5c0.1,0.4-0.1,0.8-0.5,0.9
		c-6.5,1.8-11,7.8-11,14.4c0,8.3,6.8,15,15.2,15s15.2-6.7,15.2-15c0-6-3.6-11.5-9.3-13.8c-0.4-0.2-0.6-0.6-0.4-1
		c0.2-0.4,0.6-0.6,1-0.4c6.2,2.6,10.2,8.5,10.2,15.2C34.6,27.6,27.2,35,18,35z"/>
	<path d="M23.7,13.5c-0.4,0-0.7-0.3-0.7-0.7V2h10.9c0.4,0,0.7,0.3,0.7,0.7s-0.3,0.7-0.7,0.7h-9.5v9.3C24.4,13.2,24.1,13.5,23.7,13.5
		z"/>
	<path d="M25.5,21.3h-10V10.1c0-0.4,0.3-0.7,0.7-0.7S17,9.7,17,10.1v9.7h8.5c0.4,0,0.7,0.3,0.7,0.7S25.9,21.3,25.5,21.3z"/>
</g>
</svg>
