<?xml version="1.0" encoding="utf-8"?>
<!-- Generator: Adobe Illustrator 21.0.0, SVG Export Plug-In . SVG Version: 6.00 Build 0)  -->
<svg version="1.1" id="Capa_1" xmlns="http://www.w3.org/2000/svg" xmlns:xlink="http://www.w3.org/1999/xlink" x="0px" y="0px"
	 viewBox="0 0 36.8 36.1" style="enable-background:new 0 0 36.8 36.1;" xml:space="preserve">
<g>
	<g id="XMLID_1_">
		<path d="M21.5,12.4c-9.8,2-14.4,7.8-16.5,12.3L4.3,26l1.3-0.7c3.4-1.8,8.8-3.9,15.3-3.9H23v5.9l9.8-10L23,7.3v4.8L21.5,12.4z
			 M4.6,22.2C7,18.2,11.8,13,21.2,11l0.4-0.1V3.7l13.2,13.5L28.2,24l-6.5,6.7v-8h-0.5c-0.1,0-0.2,0-0.2,0c-9.2,0-16.5,4.7-19.1,6.5
			C2.2,27.8,2.9,25.1,4.6,22.2z"/>
	</g>
</g>
</svg>
