<?xml version="1.0" encoding="utf-8"?>
<!-- Generator: Adobe Illustrator 21.0.0, SVG Export Plug-In . SVG Version: 6.00 Build 0)  -->
<svg version="1.1" id="Capa_1" xmlns="http://www.w3.org/2000/svg" xmlns:xlink="http://www.w3.org/1999/xlink" x="0px" y="0px"
	 viewBox="0 0 36.8 36.1" style="enable-background:new 0 0 36.8 36.1;" xml:space="preserve">
<g>
	<g id="XMLID_1_">
		<path d="M18.5,2.6L3,17.1h31.9c0.3,0,0.5,0.2,0.5,0.5s-0.3,0.5-0.5,0.5H2.8L18.6,33c0.2,0.2,0.2,0.5,0,0.7
			c-0.2,0.1-0.3,0.2-0.4,0.2c-0.1,0-0.1,0-0.2-0.1c0,0-0.1,0-0.1-0.1L1.2,18.2c-0.1-0.1-0.2-0.3-0.2-0.4v-0.2c0-0.2,0.1-0.4,0.3-0.5
			L17.8,1.9c0.2-0.2,0.5-0.2,0.7,0C18.7,2.1,18.7,2.4,18.5,2.6z"/>
	</g>
</g>
</svg>
