<?xml version="1.0" encoding="utf-8"?>
<!-- Generator: Adobe Illustrator 19.2.0, SVG Export Plug-In . SVG Version: 6.00 Build 0)  -->
<svg version="1.1" id="Capa_1" xmlns="http://www.w3.org/2000/svg" xmlns:xlink="http://www.w3.org/1999/xlink" x="0px" y="0px"
	 viewBox="0 0 36.8 36.1" style="enable-background:new 0 0 36.8 36.1;" xml:space="preserve">
<style type="text/css">
	.st0{fill-rule:evenodd;clip-rule:evenodd;}
	.st1{opacity:0.7709;}
	.st2{enable-background:new    ;}
	.st3{clip-path:url(#SVGID_12_);}
	.st4{clip-path:url(#SVGID_14_);}
	.st5{clip-path:url(#SVGID_16_);}
</style>
<path d="M18.3,0.6C8.7,0.6,1,8.4,1,17.9c0,9.6,7.8,17.4,17.4,17.4c4.1,0,7.9-1.4,10.9-3.9c3.5-2.8,5.9-7,6.4-11.7h0v-0.1
	c0.1-0.5,0.1-1.1,0.1-1.6C35.7,8.4,27.9,0.6,18.3,0.6z M34.1,17.9c0,0.1,0,0.1,0,0.2H19.1v-16C27.4,2.5,34.1,9.5,34.1,17.9z
	 M18.3,33.8c-8.7,0-15.8-7.1-15.8-15.8c0-8.4,6.7-15.4,15-15.8v17.5v0h0l10.6,10.6C25.4,32.5,22,33.8,18.3,33.8z M29.3,29.3
	l-9.6-9.6H34C33.6,23.4,31.9,26.8,29.3,29.3z"/>
</svg>
