<?xml version="1.0" encoding="utf-8"?>
<!-- Generator: Adobe Illustrator 19.2.0, SVG Export Plug-In . SVG Version: 6.00 Build 0)  -->
<svg version="1.1" id="Capa_1" xmlns="http://www.w3.org/2000/svg" xmlns:xlink="http://www.w3.org/1999/xlink" x="0px" y="0px"
	 viewBox="0 0 36.8 36.1" style="enable-background:new 0 0 36.8 36.1;" xml:space="preserve">
<style type="text/css">
	.st0{fill-rule:evenodd;clip-rule:evenodd;}
	.st1{opacity:0.7709;}
	.st2{enable-background:new    ;}
	.st3{clip-path:url(#SVGID_12_);}
	.st4{clip-path:url(#SVGID_14_);}
	.st5{clip-path:url(#SVGID_16_);}
</style>
<path d="M32.7,13.6c0-0.3,0-0.5-0.1-0.8l-3.3-7.7c-0.1-0.3-0.2-0.6-0.4-0.8c-0.5-0.5-1.1-0.4-1.4-0.4l-19.3,0l-0.1,0
	c-0.3,0-0.9-0.1-1.4,0.4C6.5,4.6,6.4,4.8,6.3,5.1L3,12.7c-0.1,0.3-0.1,0.6-0.1,0.9c0,0.1,0,0.2,0,0.3c0,2.4,1.5,4.3,3.6,4.9v12.7
	c0,0.8,0.6,1.4,1.4,1.4h19.8c0.8,0,1.4-0.6,1.4-1.4V18.8c2.1-0.6,3.6-2.5,3.6-4.9C32.7,13.8,32.7,13.7,32.7,13.6z M19.7,29.5h-3.8
	v-4.3h3.8V29.5z M26.3,30.1h-3.8v-5.7c0-1.1-0.9-2-2-2H15c-1.1,0-2,0.9-2,2v5.7H9.3V18.6c0.7-0.3,1.3-0.7,1.7-1.2
	c0.9,0.9,2.1,1.5,3.4,1.5s2.5-0.6,3.4-1.5c0.9,0.9,2.1,1.5,3.4,1.5c1.3,0,2.5-0.6,3.4-1.5c0.5,0.5,1.1,0.9,1.7,1.2V30.1z M29.9,13.9
	c0,1.2-0.9,2.2-2,2.2c-1.1,0-2-1-2-2.2c0-0.8-0.6-1.4-1.4-1.4s-1.4,0.6-1.4,1.4c0,1.2-0.9,2.2-2,2.2c-1.1,0-2-1-2-2.2
	c0-0.8-0.6-1.4-1.4-1.4s-1.4,0.6-1.4,1.4c0,1.2-0.9,2.2-2,2.2s-2-1-2-2.2c0-0.8-0.6-1.4-1.4-1.4c-0.8,0-1.4,0.6-1.4,1.4
	c0,1.2-0.9,2.2-2,2.2s-2-1-2-2.2c0-0.1,0-0.2,0-0.3l3-6.9h18.3l3,7C29.9,13.8,29.9,13.8,29.9,13.9z"/>
</svg>
