<?xml version="1.0" encoding="utf-8"?>
<!-- Generator: Adobe Illustrator 19.2.0, SVG Export Plug-In . SVG Version: 6.00 Build 0)  -->
<svg version="1.1" id="Capa_1" xmlns="http://www.w3.org/2000/svg" xmlns:xlink="http://www.w3.org/1999/xlink" x="0px" y="0px"
	 viewBox="0 0 36.8 36.1" style="enable-background:new 0 0 36.8 36.1;" xml:space="preserve">
<style type="text/css">
	.st0{fill-rule:evenodd;clip-rule:evenodd;}
	.st1{opacity:0.7709;}
	.st2{enable-background:new    ;}
	.st3{clip-path:url(#SVGID_12_);}
	.st4{clip-path:url(#SVGID_14_);}
	.st5{clip-path:url(#SVGID_16_);}
</style>
<g>
	<g id="XMLID_2_">
		<rect x="9.8" y="11.5" width="17.3" height="1.6"/>
		<rect x="9.8" y="16.3" width="10.2" height="1.6"/>
		<path d="M1.9,5c0-1.8,1.4-3.3,3.3-3.3h26.3c1.8,0,3.3,1.4,3.3,3.3v18.9c0,1.8-1.5,3.3-3.3,3.3h-4.9v6.4c0,0.9-0.6,1.2-1.3,0.7
			l-9.8-7H5.2c-1.8,0-3.3-1.5-3.3-3.3V5z M3.6,5v18.9c0,0.9,0.7,1.7,1.6,1.7h10.3c0.3,0,0.7,0.1,1,0.3L25,32v-4.8
			c0-0.9,0.7-1.6,1.6-1.6h4.9c0.9,0,1.6-0.7,1.6-1.7V5c0-0.9-0.7-1.7-1.7-1.7H5.2C4.3,3.3,3.6,4.1,3.6,5z"/>
	</g>
</g>
</svg>
