<?xml version="1.0" encoding="utf-8"?>
<!-- Generator: Adobe Illustrator 21.0.0, SVG Export Plug-In . SVG Version: 6.00 Build 0)  -->
<svg version="1.1" id="Capa_1" xmlns="http://www.w3.org/2000/svg" xmlns:xlink="http://www.w3.org/1999/xlink" x="0px" y="0px"
	 viewBox="0 0 36.8 36.1" style="enable-background:new 0 0 36.8 36.1;" xml:space="preserve">
<g>
	<path d="M18.2,7.8c-2.8,0-5.2,2.3-5.2,5.1c0,2.9,2.3,5.2,5.2,5.2c2.9,0,5.1-2.2,5.1-5.2C23.3,10,21.1,7.8,18.2,7.8z M18.5,9.8
		c0.7,0,1.4,0.3,2,0.8c0.6,0.6,0.9,1.3,0.9,2.2c0,1.7-1.4,3.1-3.1,3.1c-1.8,0-3.1-1.3-3.1-3.1c0-1.7,1.3-3,3.1-3
		C18.4,9.8,18.4,9.8,18.5,9.8z"/>
	<path d="M18.2,0.4c-7.1,0-12.6,5.5-12.6,12.5c0,5.3,4.1,12.9,11.7,21.9c0,0,0,0.1,0.1,0.1c0,0,0.1,0.1,0.2,0.1l0.8,1.1l0.8-1
		C19.2,35,31,21.9,31,13C30.6,5.8,25.1,0.4,18.2,0.4z M28.7,12.9c0,6-6.5,14.8-10.4,19.5C15.5,29.3,7.9,19.3,7.9,12.8
		c-0.1-2.6,0.9-5.1,2.7-7c2-2,4.7-3.2,7.7-3.2C24.2,2.6,28.7,7,28.7,12.9z"/>
</g>
</svg>
