<?xml version="1.0" encoding="utf-8"?>
<!-- Generator: Adobe Illustrator 19.2.0, SVG Export Plug-In . SVG Version: 6.00 Build 0)  -->
<svg version="1.1" id="Capa_1" xmlns="http://www.w3.org/2000/svg" xmlns:xlink="http://www.w3.org/1999/xlink" x="0px" y="0px"
	 viewBox="0 0 36.8 36.1" style="enable-background:new 0 0 36.8 36.1;" xml:space="preserve">
<style type="text/css">
	.st0{fill-rule:evenodd;clip-rule:evenodd;}
	.st1{opacity:0.7709;}
	.st2{enable-background:new    ;}
	.st3{clip-path:url(#SVGID_12_);}
	.st4{clip-path:url(#SVGID_14_);}
	.st5{clip-path:url(#SVGID_16_);}
</style>
<g>
	<g class="st2">
		<g>
			<g>
				<defs>
					<path id="SVGID_9_" d="M28.8,23.1c0,6.6-4.1,11-10.3,11s-10.3-4.4-10.3-11c0-2.8,1.6-6.5,4.8-11.5c2.3-3.5,4.5-8,4.5-8l1-2l1,2
						c0,0,2.3,4.5,4.5,8C27.3,16.6,28.8,20.3,28.8,23.1z M26.7,23.1c0-1.6-0.8-4.7-4.5-10.3c-1.4-2.2-2.8-4.7-3.7-6.4
						c-0.9,1.7-2.3,4.2-3.7,6.4c-3.7,5.7-4.5,8.8-4.5,10.3c0,6.6,4.4,8.9,8.1,8.9C22.3,32,26.7,29.6,26.7,23.1z M22.3,23.3
						c0,2-1.7,3.7-3.8,3.7c-2.1,0-3.8-1.7-3.8-3.7h-2.2c0,3.2,2.7,5.8,5.9,5.8c3.3,0,5.9-2.6,5.9-5.8H22.3z"/>
				</defs>
				<use xlink:href="#SVGID_9_"  style="overflow:visible;fill-rule:evenodd;clip-rule:evenodd;"/>
				<clipPath id="SVGID_2_">
					<use xlink:href="#SVGID_9_"  style="overflow:visible;"/>
				</clipPath>
			</g>
		</g>
	</g>
</g>
</svg>
