<?xml version="1.0" encoding="utf-8"?>
<!-- Generator: Adobe Illustrator 19.2.0, SVG Export Plug-In . SVG Version: 6.00 Build 0)  -->
<svg version="1.1" id="Capa_1" xmlns="http://www.w3.org/2000/svg" xmlns:xlink="http://www.w3.org/1999/xlink" x="0px" y="0px"
	 viewBox="0 0 36.8 36.1" style="enable-background:new 0 0 36.8 36.1;" xml:space="preserve">
<style type="text/css">
	.st0{fill-rule:evenodd;clip-rule:evenodd;}
	.st1{opacity:0.7709;}
	.st2{enable-background:new    ;}
	.st3{clip-path:url(#SVGID_12_);}
	.st4{clip-path:url(#SVGID_14_);}
	.st5{clip-path:url(#SVGID_16_);}
</style>
<g>
	<path class="st0" d="M18.3,11.4V4L1,16.1l17.3,12.1v-8.1c9.4-0.2,15.5,7.7,16.6,11.1C36.4,24.8,33.6,11.3,18.3,11.4z M30.2,22.8
		c-3.2-2.6-7-4-11.1-4.1l-2.2,0.1h0c0,0.9,0,6.6,0,6.6L3.6,16.1l13.2-9.2l0,5.9h0l2.2,0c5.9,0.2,9.9,2.5,12.4,6.4
		c1.3,2.1,2.1,4.6,2.3,7.1C32.7,25.1,31.5,23.8,30.2,22.8z"/>
</g>
</svg>
