<?xml version="1.0" encoding="utf-8"?>
<!-- Generator: Adobe Illustrator 19.2.0, SVG Export Plug-In . SVG Version: 6.00 Build 0)  -->
<svg version="1.1" id="Capa_1" xmlns="http://www.w3.org/2000/svg" xmlns:xlink="http://www.w3.org/1999/xlink" x="0px" y="0px"
	 viewBox="0 0 36.8 36.1" style="enable-background:new 0 0 36.8 36.1;" xml:space="preserve">
<style type="text/css">
	.st0{fill-rule:evenodd;clip-rule:evenodd;}
	.st1{opacity:0.7709;}
	.st2{enable-background:new    ;}
	.st3{clip-path:url(#SVGID_12_);}
	.st4{clip-path:url(#SVGID_14_);}
	.st5{clip-path:url(#SVGID_16_);}
</style>
<g>
	<path d="M33.9,14c-0.6-0.8-1.5-0.8-1.8-0.8h-1.1c0,0,0,0,0,0L23.5,2.9C23,2.1,22,2,21.2,2.5C20.5,3,20.3,4,20.9,4.8l6.1,8.4H9.8
		l6.3-8.4c0.5-0.7,0.4-1.7-0.3-2.3C15,2,14,2.1,13.5,2.8L5.8,13.2c0,0,0,0,0,0h-1C4,13.2,3.4,13.5,3,14c-0.4,0.5-0.5,1.2-0.4,1.9
		l4.2,16.8c0.1,0.6,0.7,2.4,2.3,2.4h18.7c1.3,0,2-1.2,2.3-2.3l4.2-17.1C34.4,14.9,34.1,14.3,33.9,14z M26.9,31.8h-17L6.1,16.4
		l24.6,0L26.9,31.8z"/>
	<path d="M12.6,28.2c0.9,0,1.6-0.7,1.6-1.6V21c0-0.9-0.7-1.6-1.6-1.6c-0.9,0-1.6,0.7-1.6,1.6v5.5C11,27.5,11.7,28.2,12.6,28.2z"/>
	<path d="M24.2,28.2c0.9,0,1.6-0.7,1.6-1.6V21c0-0.9-0.7-1.6-1.6-1.6s-1.6,0.7-1.6,1.6v5.5C22.5,27.5,23.3,28.2,24.2,28.2z"/>
	<path d="M18.4,28.2c0.9,0,1.6-0.7,1.6-1.6V21c0-0.9-0.7-1.6-1.6-1.6s-1.6,0.7-1.6,1.6v5.5C16.8,27.5,17.5,28.2,18.4,28.2z"/>
</g>
</svg>
