<?xml version="1.0" encoding="utf-8"?>
<!-- Generator: Adobe Illustrator 21.0.0, SVG Export Plug-In . SVG Version: 6.00 Build 0)  -->
<svg version="1.1" id="Capa_1" xmlns="http://www.w3.org/2000/svg" xmlns:xlink="http://www.w3.org/1999/xlink" x="0px" y="0px"
	 viewBox="0 0 36.8 36.1" style="enable-background:new 0 0 36.8 36.1;" xml:space="preserve">
<g>
	<rect x="13.9" y="7.1" width="9.2" height="1.9"/>
	<path d="M18.5,22.8c-2,0-3.8,1.7-3.8,3.8c0,2.1,1.8,3.8,3.8,3.8c2.1,0,3.8-1.7,3.8-3.8C22.2,24.5,20.5,22.8,18.5,22.8z M18.5,28.5
		c-1.1,0-2-0.8-2-2c0-1.1,0.9-1.9,2-1.9c1.1,0,2,0.9,2,2c0,0.5-0.1,1-0.4,1.3C19.7,28.3,19.1,28.5,18.5,28.5z"/>
	<path d="M26.9,0.3h-17c-2.7,0-5,2.3-5,5v25.5c0,2.8,2.3,5,5,5h17c2.8,0,5-2.3,5-5V5.3C32,2.6,29.6,0.3,26.9,0.3z M27,34H10
		c-1.8,0-3.2-1.4-3.2-3.2V5.3C6.8,3.5,8.2,2,10,2h17c1.8,0,3.2,1.4,3.2,3.2v25.5C30.2,32.6,28.8,34,27,34z"/>
</g>
</svg>
