<?xml version="1.0" encoding="utf-8"?>
<!-- Generator: Adobe Illustrator 19.2.0, SVG Export Plug-In . SVG Version: 6.00 Build 0)  -->
<svg version="1.1" id="Capa_1" xmlns="http://www.w3.org/2000/svg" xmlns:xlink="http://www.w3.org/1999/xlink" x="0px" y="0px"
	 viewBox="0 0 36.8 36.1" style="enable-background:new 0 0 36.8 36.1;" xml:space="preserve">
<style type="text/css">
	.st0{fill-rule:evenodd;clip-rule:evenodd;}
	.st1{opacity:0.7709;}
	.st2{enable-background:new    ;}
	.st3{clip-path:url(#SVGID_12_);}
	.st4{clip-path:url(#SVGID_14_);}
	.st5{clip-path:url(#SVGID_16_);}
</style>
<path d="M33.2,8.3c-0.6-0.8-1.6-1.3-2.6-1.5C29.1,6.5,23.5,6.3,18,6.3c-5.5,0-11.1,0.1-12.6,0.4C4.6,6.9,3.8,7.3,3.2,7.9
	C0.5,10.4,1.3,23.8,2,26C2.2,26.9,2.6,27.6,3,28c0.6,0.6,1.4,1,2.3,1.2c1.4,0.3,6.3,0.5,12,0.5c4.3,0,9.1-0.1,13.3-0.4
	c0.9-0.2,1.7-0.6,2.3-1.2C35.4,25.6,35.2,11.4,33.2,8.3z M14.7,22.3V13c3.3,1.6,5.9,3.1,9,4.7C21.1,19.1,18,20.6,14.7,22.3z"/>
</svg>
