<?xml version="1.0" encoding="utf-8"?>
<!-- Generator: Adobe Illustrator 19.2.0, SVG Export Plug-In . SVG Version: 6.00 Build 0)  -->
<svg version="1.1" id="Capa_1" xmlns="http://www.w3.org/2000/svg" xmlns:xlink="http://www.w3.org/1999/xlink" x="0px" y="0px"
	 viewBox="0 0 36.8 36.1" style="enable-background:new 0 0 36.8 36.1;" xml:space="preserve">
<style type="text/css">
	.st0{fill-rule:evenodd;clip-rule:evenodd;}
	.st1{opacity:0.7709;}
	.st2{enable-background:new    ;}
	.st3{clip-path:url(#SVGID_12_);}
	.st4{clip-path:url(#SVGID_14_);}
	.st5{clip-path:url(#SVGID_16_);}
</style>
<g>
	<path d="M13.7,8h21.7c0.6,0,1-0.5,1-1s-0.4-1-1-1H13.7c-0.5,0-1,0.5-1,1S13.1,8,13.7,8z"/>
	<path d="M35.4,17.7H13.7c-0.5,0-1,0.5-1,1s0.5,1,1,1h21.7c0.6,0,1-0.5,1-1S36,17.7,35.4,17.7z"/>
	<path d="M35.4,28.8H13.7c-0.5,0-1,0.5-1,1s0.5,1,1,1h21.7c0.6,0,1-0.5,1-1S36,28.8,35.4,28.8z"/>
	<path d="M0.4,2.6v7.9h8.1V2.1H0.4V2.6z M6,4.6v3.4H2.9V4.6H6z"/>
	<path d="M0.4,14.3v7.9h8.1v-8.4H0.4V14.3z M6,16.3v3.4H2.9v-3.4H6z"/>
	<path d="M0.4,26.1V34h8.1v-8.4H0.4V26.1z M6,28.1v3.4H2.9v-3.4H6z"/>
</g>
</svg>
