<?xml version="1.0" encoding="utf-8"?>
<!-- Generator: Adobe Illustrator 19.2.0, SVG Export Plug-In . SVG Version: 6.00 Build 0)  -->
<svg version="1.1" id="Capa_1" xmlns="http://www.w3.org/2000/svg" xmlns:xlink="http://www.w3.org/1999/xlink" x="0px" y="0px"
	 viewBox="0 0 36.8 36.1" style="enable-background:new 0 0 36.8 36.1;" xml:space="preserve">
<style type="text/css">
	.st0{fill-rule:evenodd;clip-rule:evenodd;}
	.st1{opacity:0.7709;}
	.st2{enable-background:new    ;}
	.st3{clip-path:url(#SVGID_12_);}
	.st4{clip-path:url(#SVGID_14_);}
	.st5{clip-path:url(#SVGID_16_);}
</style>
<g>
	<path d="M9,4.6c2.2,0,4,0.8,5.6,2.3s2.3,3.3,2.3,5.3c0,3.8-1.1,7.2-3.3,10.3s-4.8,5.9-7.6,8.4C7.9,27.6,9,24.8,9,22.5
		c0-0.8-0.2-1.5-0.5-2.1c-2,0-3.7-0.8-5.2-2.3c-1.5-1.6-2.2-3.4-2.2-5.6s0.8-4,2.3-5.5C5,5.4,6.8,4.6,9,4.6z M27.9,4.6
		c2.2,0,4,0.8,5.6,2.3c1.5,1.5,2.3,3.3,2.3,5.3c0,3.8-1.1,7.2-3.3,10.3c-2.2,3.1-4.8,5.9-7.7,8.4c2.1-3.3,3.1-6.1,3.1-8.4
		c0-0.8-0.2-1.5-0.5-2.1c-2,0-3.7-0.8-5.2-2.3c-1.5-1.6-2.2-3.4-2.2-5.6s0.8-4,2.3-5.5C23.8,5.4,25.7,4.6,27.9,4.6z"/>
</g>
</svg>
