<?xml version="1.0" encoding="utf-8"?>
<!-- Generator: Adobe Illustrator 19.2.0, SVG Export Plug-In . SVG Version: 6.00 Build 0)  -->
<svg version="1.1" id="Capa_1" xmlns="http://www.w3.org/2000/svg" xmlns:xlink="http://www.w3.org/1999/xlink" x="0px" y="0px"
	 viewBox="0 0 36.8 36.1" style="enable-background:new 0 0 36.8 36.1;" xml:space="preserve">
<style type="text/css">
	.st0{fill-rule:evenodd;clip-rule:evenodd;}
	.st1{opacity:0.7709;}
	.st2{enable-background:new    ;}
	.st3{clip-path:url(#SVGID_12_);}
	.st4{clip-path:url(#SVGID_14_);}
	.st5{clip-path:url(#SVGID_16_);}
</style>
<g>
	<defs>
		<path id="SVGID_7_" d="M23.7,20.6l-8.8,8.8c-2.1,2.1-5.4,2.1-7.5,0c-2.1-2.1-2.1-5.4,0-7.5l9.4-9.4l1.3,1.3l-9.4,9.4
			c-1.4,1.4-1.4,3.6,0,5c1.4,1.4,3.6,1.4,5,0l8.8-8.8l8.1-8.1c2.1-2.1,2.1-5.4,0-7.5c-2.1-2.1-5.4-2.1-7.5,0l-3.5,3.5L6.2,20.6
			c-2.8,2.8-2.8,7.2,0,10s7.2,2.8,10,0l12.1-12.1l1.3,1.3L17.4,31.9c-3.5,3.5-9.1,3.5-12.5,0s-3.5-9.1,0-12.5L18.3,6l3.5-3.5
			c2.8-2.8,7.2-2.8,10,0c2.8,2.8,2.8,7.2,0,10L23.7,20.6z"/>
	</defs>
	<use xlink:href="#SVGID_7_"  style="overflow:visible;fill-rule:evenodd;clip-rule:evenodd;"/>
	<clipPath id="SVGID_2_">
		<use xlink:href="#SVGID_7_"  style="overflow:visible;"/>
	</clipPath>
</g>
</svg>
