<?xml version="1.0" encoding="utf-8"?>
<!-- Generator: Adobe Illustrator 21.0.0, SVG Export Plug-In . SVG Version: 6.00 Build 0)  -->
<svg version="1.1" id="Capa_1" xmlns="http://www.w3.org/2000/svg" xmlns:xlink="http://www.w3.org/1999/xlink" x="0px" y="0px"
	 viewBox="0 0 36.8 36.1" style="enable-background:new 0 0 36.8 36.1;" xml:space="preserve">
<path d="M26.2,20.8h-9c-0.3,0-0.5-0.2-0.5-0.5V10c0-0.3,0.2-0.5,0.5-0.5s0.5,0.2,0.5,0.5v9.7h8.5c0.3,0,0.5,0.2,0.5,0.5
	S26.4,20.8,26.2,20.8z"/>
<path d="M18.7,34.3c-8.8,0-16-7.2-16-16s7.2-16,16-16s16,7.2,16,16S27.6,34.3,18.7,34.3z M18.7,3.3c-8.2,0-15,6.7-15,15
	s6.7,15,15,15s15-6.7,15-15S27,3.3,18.7,3.3z"/>
</svg>
