<?xml version="1.0" encoding="utf-8"?>
<!-- Generator: Adobe Illustrator 19.2.0, SVG Export Plug-In . SVG Version: 6.00 Build 0)  -->
<svg version="1.1" id="Capa_1" xmlns="http://www.w3.org/2000/svg" xmlns:xlink="http://www.w3.org/1999/xlink" x="0px" y="0px"
	 viewBox="0 0 36.8 36.1" style="enable-background:new 0 0 36.8 36.1;" xml:space="preserve">
<style type="text/css">
	.st0{fill-rule:evenodd;clip-rule:evenodd;}
	.st1{opacity:0.7709;}
	.st2{enable-background:new    ;}
	.st3{clip-path:url(#SVGID_12_);}
	.st4{clip-path:url(#SVGID_14_);}
	.st5{clip-path:url(#SVGID_16_);}
</style>
<path d="M18.6,6.3c-10.9-11.6-33.4,6.2,0,27.3C52,12.5,29.5-5.3,18.6,6.3z M18.6,31.4C3.6,21.6,2.8,13.9,3.1,11.1
	C3.5,8.3,5.3,6.2,8,5.3c0.7-0.2,1.6-0.4,2.4-0.4c2.1,0,4.5,0.8,6.6,3l1.5,1.6l1.5-1.6c3-3.2,6.6-3.4,9.1-2.6c2.7,0.9,4.5,3,4.9,5.8
	C34.4,13.9,33.5,21.6,18.6,31.4z"/>
</svg>
