<?xml version="1.0" encoding="utf-8"?>
<!-- Generator: Adobe Illustrator 19.2.0, SVG Export Plug-In . SVG Version: 6.00 Build 0)  -->
<svg version="1.1" id="Capa_1" xmlns="http://www.w3.org/2000/svg" xmlns:xlink="http://www.w3.org/1999/xlink" x="0px" y="0px"
	 viewBox="0 0 36.8 36.1" style="enable-background:new 0 0 36.8 36.1;" xml:space="preserve">
<style type="text/css">
	.st0{fill-rule:evenodd;clip-rule:evenodd;}
	.st1{opacity:0.7709;}
	.st2{enable-background:new    ;}
	.st3{clip-path:url(#SVGID_12_);}
	.st4{clip-path:url(#SVGID_14_);}
	.st5{clip-path:url(#SVGID_16_);}
</style>
<g>
	<path d="M6.7,15.3L6.7,15.3l-0.1,0.4c-0.4-0.3-0.9-0.5-1.5-0.5c-1.3,0-2.3,1-2.3,2.3c0,1.3,1,2.3,2.3,2.3c0.6,0,1.1-0.2,1.5-0.5
		v0.3l0.1,0.1H8l0.1-0.1v-4.2L8,15.3H6.7z M5.4,18.5c-0.6,0-1-0.5-1-1c0-0.6,0.5-1,1-1c0.6,0,1,0.5,1,1C6.4,18,5.9,18.5,5.4,18.5z"
		/>
	<polygon points="0.9,12.4 0.9,12.4 0.9,19.5 0.9,19.6 2.2,19.6 2.3,19.5 2.3,12.4 2.2,12.4 	"/>
	<path d="M36.1,15.3h-1.3l-0.1,0.1v0.4c-0.4-0.3-0.9-0.5-1.5-0.5c-1.3,0-2.3,1-2.3,2.3c0,1.3,1,2.3,2.3,2.3c0.6,0,1.1-0.2,1.5-0.5
		v0.3l0.1,0.1h1.3l0.1-0.1L36.1,15.3L36.1,15.3z M33.4,18.5c-0.6,0-1-0.5-1-1c0-0.6,0.5-1,1-1c0.6,0,1,0.5,1,1
		C34.5,18,34,18.5,33.4,18.5z"/>
	<polygon points="18.3,12.4 18.2,12.4 18.2,19.5 18.3,19.6 19.6,19.6 19.6,19.5 19.6,12.4 19.6,12.4 	"/>
	<path d="M26.3,15.4v1l0.1,0.1h1.7l-1.8,2.5v0.6c0,0,0,0,0.1,0c1.1-0.6,2.9,0.8,4-0.2v-1.2c0,0,0,0-0.1,0c-0.6,0.5-1.3,0.4-2,0.1
		l0-0.1l2-2.8v-0.1L26.3,15.4L26.3,15.4z"/>
	<path d="M15.3,15.2c-0.6,0-1.1,0.2-1.5,0.5v-0.4l-0.1-0.1h-1.3l-0.1,0.1v6.3l0.1,0.1h1.3l0.1-0.1v-2.5c0.4,0.3,0.9,0.5,1.5,0.5
		c1.3,0,2.3-1,2.3-2.3C17.5,16.2,16.5,15.2,15.3,15.2z M15.1,18.5c-0.6,0-1-0.5-1-1c0-0.6,0.5-1,1-1c0.6,0,1,0.5,1,1
		C16.1,18,15.7,18.5,15.1,18.5z"/>
	<path d="M24.1,15.3L24.1,15.3L24,15.7c-0.4-0.3-0.9-0.5-1.5-0.5c-1.3,0-2.3,1-2.3,2.3c0,1.3,1,2.3,2.3,2.3c0.6,0,1.1-0.2,1.5-0.5
		v0.3l0.1,0.1h1.3l0.1-0.1v-4.1l-0.1-0.1H24.1z M22.7,18.5c-0.6,0-1-0.5-1-1c0-0.6,0.5-1,1-1c0.6,0,1,0.5,1,1
		C23.8,18,23.3,18.5,22.7,18.5z"/>
</g>
</svg>
