<?xml version="1.0" encoding="utf-8"?>
<!-- Generator: Adobe Illustrator 19.2.0, SVG Export Plug-In . SVG Version: 6.00 Build 0)  -->
<svg version="1.1" id="Capa_1" xmlns="http://www.w3.org/2000/svg" xmlns:xlink="http://www.w3.org/1999/xlink" x="0px" y="0px"
	 viewBox="0 0 36.8 36.1" style="enable-background:new 0 0 36.8 36.1;" xml:space="preserve">
<style type="text/css">
	.st0{fill-rule:evenodd;clip-rule:evenodd;}
	.st1{opacity:0.7709;}
	.st2{enable-background:new    ;}
	.st3{clip-path:url(#SVGID_12_);}
	.st4{clip-path:url(#SVGID_14_);}
	.st5{clip-path:url(#SVGID_16_);}
</style>
<g>
	<path class="st0" d="M35.4,17.8c-1,0.7-1.9,1.4-2.8,2c-0.2,0.1-0.3,0.3-0.5,0.4v-2.7c0-0.7-0.1-1.3-0.3-1.6
		c-0.2-0.4-0.5-0.6-0.8-0.8c-0.4-0.2-0.8-0.3-1.2-0.3c-0.3,0-0.6,0-0.9,0.1c-0.3,0.1-0.5,0.2-0.7,0.4c-0.1,0.1-0.2,0.2-0.3,0.3v-3.6
		h-1.5v9.7h1.5v-3.4c0-0.6,0.1-1,0.2-1.3c0.2-0.3,0.4-0.5,0.6-0.7c0.3-0.2,0.5-0.2,0.8-0.2c0.2,0,0.5,0.1,0.6,0.2
		c0.2,0.1,0.3,0.3,0.4,0.5c0.1,0.2,0.1,0.6,0.1,1.2v3.3c-0.4,0.3-0.8,0.5-1.1,0.7c0.2-0.1,0.3-0.2,0.5-0.3c-0.2,0.1-0.4,0.2-0.6,0.4
		c0,0,0,0,0.1,0c-0.2,0.1-0.3,0.2-0.5,0.2c0.1,0,0.1,0,0.2-0.1c-0.2,0.1-0.5,0.2-0.8,0.3c0.1,0,0.2-0.1,0.2-0.1
		c-0.1,0.1-0.3,0.1-0.4,0.2c0,0,0,0,0.1,0c-0.4,0.1-0.7,0.2-1.1,0.3c0.1,0,0.1,0,0.2,0c-0.1,0-0.1,0-0.2,0c0,0,0,0,0,0
		c-0.2,0.1-0.5,0.1-0.7,0.1c0,0,0,0,0.1,0c-0.1,0-0.1,0-0.2,0c0,0-0.1,0-0.1,0c0,0,0,0-0.1,0c-0.3,0-0.5,0-0.8,0c0,0-0.1,0-0.1,0
		c0,0,0.1,0,0.1,0c-0.1,0-0.2,0-0.3,0c-1.9,0-4.2-0.5-7-1.5c0.3-0.2,0.6-0.4,0.8-0.6c0.3-0.3,0.4-0.7,0.4-1v-0.3h-1.5V20
		c0,0.2-0.1,0.3-0.3,0.5c-0.2,0.1-0.5,0.2-0.9,0.2c-0.6,0-1.1-0.2-1.4-0.6c-0.3-0.4-0.5-0.8-0.5-1.4h4.6v-0.6c0-0.8-0.1-1.5-0.4-2
		c-0.3-0.5-0.6-0.8-1-1.1c-0.4-0.2-0.9-0.3-1.4-0.3c-1,0-1.8,0.4-2.4,1c-0.6,0.7-0.9,1.6-0.9,2.6c0,0.4,0.1,0.8,0.2,1.2
		c-0.2-0.1-0.4-0.2-0.6-0.3c0,0-0.1,0-0.1,0c-0.2-0.1-0.4-0.2-0.6-0.3c-0.1,0-0.1,0-0.2-0.1c-0.2-0.1-0.5-0.1-0.8-0.2
		c-0.1,0-0.1,0-0.2,0c-0.2,0-0.4-0.1-0.5-0.1v-0.3c0-0.8,0.2-1.4,0.5-1.7c0.3-0.3,0.7-0.5,1.1-0.5c0.3,0,0.5,0.1,0.7,0.2l0.3,0.1
		v-1.6l-0.1,0c-0.2-0.1-0.4-0.1-0.7-0.1c-0.3,0-0.5,0.1-0.8,0.2c-0.3,0.1-0.5,0.2-0.7,0.4c-0.1,0.1-0.2,0.2-0.3,0.3v-0.7H8.7v3.6
		c0,0,0,0,0,0c0,0-0.1,0-0.1,0c-0.9,0-1.8,0.1-2.7,0.2c0,0-0.1,0-0.1,0c-0.1,0-0.1,0-0.2,0c-0.2,0-0.3,0.1-0.5,0.1v-2.6h2.5V15H5.1
		v-0.3c0-0.8,0.2-1,0.4-1.1c0.3-0.2,0.6-0.2,1-0.2c0.2,0,0.5,0,0.9,0.1l0.2,0V12c0,0-1.3-0.1-1.7-0.1c-0.9,0-1.7,0.2-2.3,0.7
		c-0.6,0.5-0.9,1.2-0.9,2.3V15H1.6v1.4h1.3v3.1c-1.3,0.3-2.2,0.7-2.2,0.7l0,0l0,0c0,0,0,0,0,0l0,0c0.3-0.1,0.6-0.1,0.8-0.2
		c0.4-0.1,0.9-0.2,1.3-0.3v6.6h2.3v-7c1-0.2,2-0.3,2.9-0.3c0.2,0,0.4,0,0.6,0c0,0,0,0,0,0c0,0,0.1,0,0.1,0v2.7h1.5v-2.5
		c0.1,0,0.2,0.1,0.3,0.1c0.1,0,0.2,0.1,0.3,0.1c0.1,0,0.2,0.1,0.3,0.1c0.1,0,0.2,0.1,0.3,0.1c0.1,0,0.1,0.1,0.2,0.1
		c0.1,0.1,0.2,0.1,0.3,0.2c0.1,0,0.1,0.1,0.1,0.1c0.1,0.1,0.2,0.1,0.3,0.2c0.7,0.7,1.4,1.3,2.2,1.8c0,0,0,0,0.1,0.1
		c0.2,0.2,0.4,0.3,0.7,0.5c0,0,0,0,0.1,0.1c0.2,0.1,0.3,0.2,0.5,0.3c1.1,0.7,2.1,1.4,3.1,1.8c0.9,0.4,1.8,0.7,2.7,1c0,0,0,0,0,0
		c0.1,0,0.1,0,0.2,0c0.1,0,0.2,0.1,0.4,0.1c0,0,0,0,0,0c0.2,0,0.4,0.1,0.5,0.1c0,0,0,0,0,0c0.5,0.1,1.1,0.1,1.6,0.1
		c0.1,0,0.3,0,0.4,0c0,0,0,0,0.1,0c0.1,0,0.3,0,0.4,0c0,0,0.1,0,0.1,0c0.4,0,0.9-0.1,1.3-0.2c0,0,0.1,0,0.1,0c0.1,0,0.2,0,0.3-0.1
		c0.3-0.1,0.6-0.2,0.9-0.3c0,0,0.1,0,0.1,0c0.1,0,0.2-0.1,0.3-0.1c0.1,0,0.1,0,0.1-0.1c0.3-0.1,0.5-0.3,0.8-0.4
		c0.1,0,0.1-0.1,0.2-0.1c0.1,0,0.1-0.1,0.2-0.1c0.1,0,0.1-0.1,0.2-0.1c1.1-0.7,2.1-1.6,2.8-2.5c0,0,0,0,0.1-0.1c0,0,0-0.1,0.1-0.1
		c0.2-0.2,0.4-0.4,0.5-0.7c0-0.1,0.1-0.1,0.1-0.2c0.2-0.2,0.3-0.4,0.5-0.6c0-0.1,0.1-0.1,0.1-0.2c0.1-0.2,0.2-0.4,0.3-0.5
		c0-0.1,0.1-0.1,0.1-0.2c0.1-0.1,0.2-0.3,0.2-0.4c0,0,0-0.1,0.1-0.1C35.1,18.3,35.4,17.8,35.4,17.8L35.4,17.8z M15.2,16.5
		c0.3-0.3,0.6-0.4,1-0.4c0.3,0,0.6,0.1,0.8,0.2c0.2,0.1,0.4,0.3,0.5,0.5c0.1,0.2,0.2,0.5,0.2,0.7h-3.1
		C14.7,17.1,14.9,16.7,15.2,16.5z M30.6,21.3c-0.1,0.1-0.3,0.2-0.4,0.3C30.3,21.5,30.4,21.4,30.6,21.3L30.6,21.3z"/>
	<path class="st0" d="M26,23.1C26,23.1,26,23.1,26,23.1C26,23.1,26,23.1,26,23.1C26,23.1,26,23.1,26,23.1z"/>
	<path class="st0" d="M26,23.1C26,23.1,26,23.1,26,23.1c-0.2,0-0.5,0-0.8,0c0,0,0,0,0,0C25.4,23.1,25.7,23.1,26,23.1z"/>
	<path class="st0" d="M26.3,23c-0.1,0-0.2,0-0.3,0c0,0,0.1,0,0.1,0C26.2,23,26.2,23,26.3,23z"/>
	<path class="st0" d="M21.1,21.7c0.4,0.2,0.9,0.3,1.4,0.3c0.9,0,1.6-0.2,2.1-0.7c0.5-0.4,0.7-1,0.7-1.7c0-0.3-0.1-0.5-0.2-0.8
		c-0.1-0.2-0.3-0.4-0.5-0.6c-0.1-0.1-0.3-0.2-0.4-0.3c-0.1-0.1-0.5-0.2-1-0.3l-0.4-0.1l-0.5-0.1c-0.3-0.1-0.6-0.2-0.7-0.3
		c-0.1-0.1-0.2-0.2-0.2-0.3c0-0.2,0.1-0.4,0.3-0.5c0.2-0.1,0.5-0.2,0.9-0.2c0.3,0,0.6,0.1,0.8,0.2c0.2,0.1,0.2,0.2,0.2,0.3v0.2h1.5
		v-0.2c0-0.5-0.2-0.9-0.6-1.2c-0.4-0.4-1-0.5-1.9-0.5c-0.9,0-1.5,0.2-2,0.6c-0.5,0.4-0.7,0.9-0.7,1.5c0,0.8,0.5,1.4,1.4,1.7h0
		l0.8,0.2l0.4,0.1l0.6,0.2c0.7,0.2,0.7,0.5,0.7,0.6c0,0.2-0.1,0.4-0.3,0.6c-0.2,0.2-0.6,0.3-1,0.3c-0.5,0-0.8-0.1-1-0.2
		c-0.2-0.1-0.3-0.3-0.3-0.5v-0.2h-1.5v0.2c0,0.4,0.1,0.8,0.4,1.1C20.4,21.3,20.7,21.5,21.1,21.7z"/>
</g>
</svg>
