<?xml version="1.0" encoding="utf-8"?>
<!-- Generator: Adobe Illustrator 19.2.0, SVG Export Plug-In . SVG Version: 6.00 Build 0)  -->
<svg version="1.1" id="Capa_1" xmlns="http://www.w3.org/2000/svg" xmlns:xlink="http://www.w3.org/1999/xlink" x="0px" y="0px"
	 viewBox="0 0 36.8 36.1" style="enable-background:new 0 0 36.8 36.1;" xml:space="preserve">
<style type="text/css">
	.st0{fill-rule:evenodd;clip-rule:evenodd;}
	.st1{opacity:0.7709;}
	.st2{enable-background:new    ;}
	.st3{clip-path:url(#SVGID_12_);}
	.st4{clip-path:url(#SVGID_14_);}
	.st5{clip-path:url(#SVGID_16_);}
</style>
<g>
	<polygon points="10.4,22.2 12.6,22.2 12.6,15 10.4,16 	"/>
	<path d="M5.1,13.7H1.9v8.5h3.2c2.4,0,4.3-1.9,4.3-4.2C9.4,15.6,7.4,13.7,5.1,13.7z M5.2,20.1c0,0-0.1,0-0.1,0H4v-4.3h1.1
		c0,0,0.1,0,0.1,0c1.2,0.1,2.1,1,2.1,2.2C7.3,19.1,6.3,20.1,5.2,20.1z"/>
	<ellipse cx="32.2" cy="19.9" rx="1.2" ry="1.2"/>
	<path d="M17.3,15.2c-2,0-3.6,1.6-3.6,3.6c0,2.1,1.7,3.6,3.5,3.6c0.7,0,1.4-0.3,2.1-0.9l1.6,0.8v-3.5C20.9,16.8,19.2,15.2,17.3,15.2
		z M18.7,19.3c-0.2,0.6-0.8,1.1-1.5,1.1c-0.9,0-1.6-0.7-1.6-1.6c0-0.9,0.7-1.6,1.6-1.6c0.9,0,1.6,0.7,1.6,1.6
		C18.8,18.9,18.8,19.1,18.7,19.3z"/>
	<path d="M34.3,12.6h-6.1c-1.8,0-3.3,1.5-3.3,3.3V22c0,0.7,0.6,1.3,1.3,1.3h6.1c1.8,0,3.3-1.5,3.3-3.3v-6.1
		C35.6,13.2,35,12.6,34.3,12.6z M34.5,20c0,1.2-1,2.2-2.3,2.2H26v-6.3v0c0-1.2,1-2.2,2.3-2.2h6.3V20z"/>
	<ellipse cx="28.3" cy="15.9" rx="1.2" ry="1.2"/>
	<polygon points="29.2,21 33.4,14.9 31.3,14.9 27.2,21 	"/>
</g>
</svg>
