<?xml version="1.0" encoding="utf-8"?>
<!-- Generator: Adobe Illustrator 19.2.0, SVG Export Plug-In . SVG Version: 6.00 Build 0)  -->
<svg version="1.1" id="Capa_1" xmlns="http://www.w3.org/2000/svg" xmlns:xlink="http://www.w3.org/1999/xlink" x="0px" y="0px"
	 viewBox="0 0 36.8 36.1" style="enable-background:new 0 0 36.8 36.1;" xml:space="preserve">
<style type="text/css">
	.st0{fill-rule:evenodd;clip-rule:evenodd;}
	.st1{opacity:0.7709;}
	.st2{enable-background:new    ;}
	.st3{clip-path:url(#SVGID_12_);}
	.st4{clip-path:url(#SVGID_14_);}
	.st5{clip-path:url(#SVGID_16_);}
</style>
<path d="M33,14.8c0-0.2,0-0.4-0.2-0.6L19.5,2c-0.3-0.2-0.6-0.2-0.9,0L5.3,13.9C5.3,13.9,5.2,14,5.2,14H5.1v18.3
	c0,0.7,0.6,1.2,1.3,1.2H14v0.8h1.3V24.1h7.5v10.2h1.3v-0.8h7.5c0.7,0,1.3-0.5,1.3-1.2L33,14.8L33,14.8z M31.7,32.2h-7.5v-8.8
	c0-0.4-0.3-0.7-0.7-0.7h-8.9c-0.4,0-0.7,0.3-0.7,0.7v8.8l-7.5,0V14.6L19,3.3L31.7,15V32.2z"/>
</svg>
