<?xml version="1.0" encoding="utf-8"?>
<!-- Generator: Adobe Illustrator 19.2.0, SVG Export Plug-In . SVG Version: 6.00 Build 0)  -->
<svg version="1.1" id="Capa_1" xmlns="http://www.w3.org/2000/svg" xmlns:xlink="http://www.w3.org/1999/xlink" x="0px" y="0px"
	 viewBox="0 0 36.8 36.1" style="enable-background:new 0 0 36.8 36.1;" xml:space="preserve">
<style type="text/css">
	.st0{fill-rule:evenodd;clip-rule:evenodd;}
	.st1{opacity:0.7709;}
	.st2{enable-background:new    ;}
	.st3{clip-path:url(#SVGID_12_);}
	.st4{clip-path:url(#SVGID_14_);}
	.st5{clip-path:url(#SVGID_16_);}
</style>
<g>
	<path d="M36.2,24l-4.5-11.7c-0.4-1.1-1.5-1.8-2.6-1.8c-1.2,0-2.2,0.7-2.6,1.8L22,24c-0.2,0.4,0.1,0.8,0.6,0.8h2.4
		c0.3,0,0.5-0.2,0.6-0.4l0.8-2.6c0.1-0.2,0.2-0.3,0.4-0.3h4.6c0.2,0,0.3,0.1,0.4,0.3l0.9,2.6c0.1,0.3,0.3,0.4,0.6,0.4h2.6
		C36.1,24.8,36.4,24.4,36.2,24z M30.2,18.6h-2.5c-0.2,0-0.3-0.2-0.3-0.4l1.2-3.7c0.1-0.3,0.4-0.3,0.5,0l1.2,3.7
		C30.5,18.4,30.4,18.6,30.2,18.6z"/>
	<path d="M19.6,14l-2.8,1.7c-0.2,0.1-0.3,0.4-0.3,0.6v7.9c0,0.4,0.3,0.7,0.7,0.7h2.4c0.4,0,0.7-0.3,0.7-0.7v-9.8
		C20.2,14,19.9,13.8,19.6,14z"/>
	<path d="M19.9,10.4h-3c-0.2,0-0.4,0.2-0.4,0.4v2.9c0,0.3,0.3,0.5,0.6,0.3l3-1.8c0.1-0.1,0.2-0.2,0.2-0.3v-1.1
		C20.2,10.6,20.1,10.4,19.9,10.4z"/>
	<path d="M6.4,10.4H2c-0.4,0-0.7,0.3-0.7,0.7v12.9c0,0.4,0.3,0.7,0.7,0.7h4.3c2.5,0,4.5-0.6,6-1.9c1.4-1.3,2.1-3,2.1-5.3
		c0-2.3-0.7-4.1-2.1-5.3C10.9,11.1,8.9,10.4,6.4,10.4z M6.1,21.7H5.3c-0.2,0-0.3-0.2-0.3-0.3v-7.6c0-0.2,0.1-0.3,0.3-0.3h0.9
		c2.9,0,4.4,1.4,4.4,4.1S9.1,21.7,6.1,21.7z"/>
</g>
</svg>
