<?xml version="1.0" encoding="utf-8"?>
<!-- Generator: Adobe Illustrator 19.2.0, SVG Export Plug-In . SVG Version: 6.00 Build 0)  -->
<svg version="1.1" id="Capa_1" xmlns="http://www.w3.org/2000/svg" xmlns:xlink="http://www.w3.org/1999/xlink" x="0px" y="0px"
	 viewBox="0 0 36.8 36.1" style="enable-background:new 0 0 36.8 36.1;" xml:space="preserve">
<style type="text/css">
	.st0{fill-rule:evenodd;clip-rule:evenodd;}
	.st1{opacity:0.7709;}
	.st2{enable-background:new    ;}
	.st3{clip-path:url(#SVGID_12_);}
	.st4{clip-path:url(#SVGID_14_);}
	.st5{clip-path:url(#SVGID_16_);}
</style>
<g>
	<path class="st0" d="M1.8,30.5c1.1-3.4,7.2-11.3,16.6-11.1v8.1l17.3-12.1L18.4,3.3v7.4C3.2,10.6,0.4,24.1,1.8,30.5z M3,25.6
		c0.2-2.4,1-5,2.3-7.1c2.4-3.9,6.5-6.3,12.4-6.4l2.2,0h0l0-5.9l13.2,9.2l-13.2,9.2c0,0,0-5.7,0-6.6h0l-2.2-0.1
		c-4.1,0.1-7.8,1.6-11.1,4.1C5.2,23.1,4,24.4,3,25.6z"/>
</g>
</svg>
