<?xml version="1.0" encoding="utf-8"?>
<!-- Generator: Adobe Illustrator 19.2.0, SVG Export Plug-In . SVG Version: 6.00 Build 0)  -->
<svg version="1.1" id="Capa_1" xmlns="http://www.w3.org/2000/svg" xmlns:xlink="http://www.w3.org/1999/xlink" x="0px" y="0px"
	 viewBox="0 0 36.8 36.1" style="enable-background:new 0 0 36.8 36.1;" xml:space="preserve">
<style type="text/css">
	.st0{fill-rule:evenodd;clip-rule:evenodd;}
	.st1{opacity:0.7709;}
	.st2{enable-background:new    ;}
	.st3{clip-path:url(#SVGID_12_);}
	.st4{clip-path:url(#SVGID_14_);}
	.st5{clip-path:url(#SVGID_16_);}
</style>
<g>
	<path d="M12.3,15.9V19H19c-0.2,1.6-1.8,4.8-6,4.8c-3.6,0-6.6-2.6-6.6-6.1c0-3.5,3-6.2,6.6-6.2c2.1,0,3.5,0.9,4.2,1.6l2.9-2.6
		C18.3,9,15.9,8,13,8C7.1,8,2.3,12.5,2.3,18c0,5.5,4.8,10,10.7,10c6.1,0,10.2-4.4,10.2-10.2c0-0.7-0.1-2-0.2-2H12.3z"/>
	<polygon points="32.4,15.9 32.4,12.7 29.1,12.7 29.1,15.9 25.7,15.9 25.7,19 29.1,19 29.1,22.1 32.4,22.1 32.4,19 35.7,19 
		35.7,15.9 	"/>
</g>
</svg>
