<?xml version="1.0" encoding="utf-8"?>
<!-- Generator: Adobe Illustrator 19.2.0, SVG Export Plug-In . SVG Version: 6.00 Build 0)  -->
<svg version="1.1" id="Capa_1" xmlns="http://www.w3.org/2000/svg" xmlns:xlink="http://www.w3.org/1999/xlink" x="0px" y="0px"
	 viewBox="0 0 36.8 36.1" style="enable-background:new 0 0 36.8 36.1;" xml:space="preserve">
<style type="text/css">
	.st0{fill-rule:evenodd;clip-rule:evenodd;}
	.st1{opacity:0.7709;}
	.st2{enable-background:new    ;}
	.st3{clip-path:url(#SVGID_12_);}
	.st4{clip-path:url(#SVGID_14_);}
	.st5{clip-path:url(#SVGID_16_);}
</style>
<g>
	<path d="M31.6,26.7c4.7-6.4,4.1-15.5-1.5-21.2c-3-3.1-7-4.8-11.3-4.8v1c4,0,7.8,1.6,10.6,4.5c5.2,5.3,5.8,13.9,1.4,19.8l-2.2,2.3
		v-4.5h-1V30h6.2v-1h-4.5L31.6,26.7z"/>
	<path d="M5.7,8.9L8,6.7v4.5h1V4.9H2.8v1h4.5L5,8.3c-4.7,6.4-4.1,15.5,1.5,21.2c3,3.1,7,4.8,11.3,4.8v-1c-4,0-7.8-1.6-10.6-4.5
		C1.9,23.4,1.3,14.9,5.7,8.9z"/>
</g>
</svg>
