<?xml version="1.0" encoding="utf-8"?>
<!-- Generator: Adobe Illustrator 19.2.0, SVG Export Plug-In . SVG Version: 6.00 Build 0)  -->
<svg version="1.1" id="Capa_1" xmlns="http://www.w3.org/2000/svg" xmlns:xlink="http://www.w3.org/1999/xlink" x="0px" y="0px"
	 viewBox="0 0 36.8 36.1" style="enable-background:new 0 0 36.8 36.1;" xml:space="preserve">
<style type="text/css">
	.st0{fill-rule:evenodd;clip-rule:evenodd;}
	.st1{opacity:0.7709;}
	.st2{enable-background:new    ;}
	.st3{clip-path:url(#SVGID_12_);}
	.st4{clip-path:url(#SVGID_14_);}
	.st5{clip-path:url(#SVGID_16_);}
</style>
<path d="M34.6,3.3c-0.7-0.6-1.5-0.5-1.8-0.4l-28.5,0C4,2.9,3.3,2.7,2.6,3.3C2.3,3.5,1.9,4,1.9,4.9v20c0,1.3,1,2.8,2.5,2.8h7.6
	l4.5,5.5c0,0,0,0,0,0l0,0c0,0,0,0,0,0c0.1,0.1,0.1,0.1,0.2,0.2c0,0,0,0,0,0c0,0,0.1,0,0.1,0.1c0.1,0,0.1,0.1,0.2,0.1
	c0,0,0.1,0,0.1,0.1c0.1,0,0.2,0.1,0.2,0.1c0,0,0.1,0,0.1,0c0.1,0,0.2,0,0.3,0l0,0c0,0,0,0,0,0c0.1,0,0.2,0,0.3,0c0,0,0.1,0,0.1,0
	c0.1,0,0.2,0,0.2-0.1c0,0,0.1,0,0.1-0.1c0.1,0,0.1-0.1,0.2-0.1c0,0,0.1,0,0.1-0.1c0,0,0,0,0,0c0.1-0.1,0.1-0.1,0.2-0.2c0,0,0,0,0,0
	l0,0c0,0,0,0,0,0l4.5-5.5h9c1.5,0,2.5-1.5,2.5-2.8v-20C35.3,4,34.9,3.5,34.6,3.3z M31.7,24.1h-8.9c-0.7,0-1.4,0.5-1.7,1.1l-3.3,4
	l-3.3-4c-0.3-0.7-0.9-1.1-1.7-1.1H5.4V6.5h26.3V24.1z"/>
</svg>
