<?xml version="1.0" encoding="utf-8"?>
<!-- Generator: Adobe Illustrator 19.2.0, SVG Export Plug-In . SVG Version: 6.00 Build 0)  -->
<svg version="1.1" id="Capa_1" xmlns="http://www.w3.org/2000/svg" xmlns:xlink="http://www.w3.org/1999/xlink" x="0px" y="0px"
	 viewBox="0 0 36.8 36.1" style="enable-background:new 0 0 36.8 36.1;" xml:space="preserve">
<style type="text/css">
	.st0{fill-rule:evenodd;clip-rule:evenodd;}
	.st1{opacity:0.7709;}
	.st2{enable-background:new    ;}
	.st3{clip-path:url(#SVGID_12_);}
	.st4{clip-path:url(#SVGID_14_);}
	.st5{clip-path:url(#SVGID_16_);}
</style>
<path d="M35,7.8c-1.2,0.5-2.6,0.9-3.9,1.1c1.4-0.8,2.5-2.2,3-3.7c-1.3,0.8-2.8,1.3-4.4,1.6c-1.4-1.4-3.2-2.1-5-2.1
	c-1.7,0-3.4,0.6-4.7,1.8c-1.8,1.6-2.5,4.1-2,6.4c-5.5-0.3-10.6-2.8-14.1-7C2.1,9,3,12.9,6,14.9c-1.1,0-2.2-0.3-3.1-0.8v0.1
	c0,3.2,2.3,6,5.5,6.6C7.8,20.9,7.2,21,6.6,21c-0.4,0-0.9,0-1.3-0.1c0.9,2.7,3.5,4.6,6.4,4.7c-2.4,1.9-5.4,2.9-8.5,2.9h0
	c-0.5,0-1.1,0-1.6-0.1c3.1,2,6.8,3,10.5,3h0v0c12.6,0,19.5-10.3,19.5-19.2c0-0.3,0-0.6,0-0.9C32.9,10.4,34.1,9.2,35,7.8z"/>
</svg>
