<?xml version="1.0" encoding="utf-8"?>
<!-- Generator: Adobe Illustrator 21.0.0, SVG Export Plug-In . SVG Version: 6.00 Build 0)  -->
<svg version="1.1" id="Capa_1" xmlns="http://www.w3.org/2000/svg" xmlns:xlink="http://www.w3.org/1999/xlink" x="0px" y="0px"
	 viewBox="0 0 36.8 36.1" style="enable-background:new 0 0 36.8 36.1;" xml:space="preserve">
<path d="M34.7,26.6c-3.3-3.1-6.2-4.9-8.4-5.3c-1.1-0.2-1.9,0.5-2.6,1.1c-0.9,0.8-1.4,1-2.2,0.6c-2.4-1.5-6.3-5-7.8-8.1
	c-0.2-0.5,0.2-1.2,0.7-1.9c0.1-0.2,0.2-0.3,0.3-0.5c0.7-1,1.5-2.1,1-3C12.5,4.4,10.4,1,8.2,1c-1.1,0-7,1.1-7,6.5
	c0,5.6,4.2,12.7,11.3,19.1c6.5,5.9,11.5,8.7,15.8,8.7c0.7,0,1.4-0.1,2.1-0.2c1.5-0.3,4.7-2.6,5.3-4.9C36.1,28.9,35.8,27.6,34.7,26.6
	z M13.4,11.4l-0.1,0.2c-0.8,1.1-1.9,2.6-1.2,4.1c1.5,3.4,5.5,7.1,8.5,8.9c1.8,1.2,3.4,0,4.3-0.7c0.5-0.4,0.9-0.7,1.2-0.6
	c1,0.2,3.4,1.1,7.5,4.8c0.7,0.7,0.7,1.2,0.6,1.7c-0.5,1.7-3,3.4-3.9,3.6c-4,1-9-1.5-16.2-8C7.3,19.2,3.2,12.6,3.2,7.5
	c0-3.8,4.3-4.6,5-4.6c1.1,0,3.8,4.4,5.4,7l0.3,0.4c0,0.1-0.1,0.2-0.2,0.3C13.7,10.8,13.5,11.1,13.4,11.4z"/>
</svg>
