<?xml version="1.0" encoding="utf-8"?>
<!-- Generator: Adobe Illustrator 19.2.0, SVG Export Plug-In . SVG Version: 6.00 Build 0)  -->
<svg version="1.1" id="Capa_1" xmlns="http://www.w3.org/2000/svg" xmlns:xlink="http://www.w3.org/1999/xlink" x="0px" y="0px"
	 viewBox="0 0 36.8 36.1" style="enable-background:new 0 0 36.8 36.1;" xml:space="preserve">
<style type="text/css">
	.st0{fill-rule:evenodd;clip-rule:evenodd;}
	.st1{opacity:0.7709;}
	.st2{enable-background:new    ;}
	.st3{clip-path:url(#SVGID_12_);}
	.st4{clip-path:url(#SVGID_14_);}
	.st5{clip-path:url(#SVGID_16_);}
</style>
<g>
	<path d="M33.6,22.9c0.6,0,1.2-0.2,1.6-0.6c0.4-0.4,0.6-0.8,0.6-1.4c0-0.5-0.2-1-0.6-1.4c-0.4-0.4-0.9-0.6-1.6-0.6
		c-0.7,0-1.2,0.2-1.6,0.6c-0.4,0.4-0.6,0.9-0.6,1.4c0,0.5,0.2,1,0.6,1.4C32.4,22.7,32.9,22.9,33.6,22.9z M32.7,20.1
		c0.2-0.2,0.5-0.3,0.9-0.3c0.4,0,0.7,0.1,0.9,0.3c0.2,0.2,0.3,0.5,0.3,0.8c0,0.3-0.1,0.6-0.3,0.8c-0.2,0.2-0.5,0.3-0.9,0.3
		c-0.4,0-0.7-0.1-0.9-0.3c-0.2-0.2-0.3-0.5-0.3-0.8C32.4,20.6,32.5,20.3,32.7,20.1z"/>
	<path d="M30.8,25.6c0.1,0,0.1-0.1,0.1-0.2s0-0.2-0.1-0.3c-0.1,0-0.2-0.1-0.4-0.1h-0.2v0.7h0.2C30.6,25.7,30.7,25.6,30.8,25.6z"/>
	<polygon points="30.2,22.9 30.2,19.8 31.6,19.8 31.6,19.1 27.8,19.1 27.8,19.8 29.2,19.8 29.2,22.9 	"/>
	<polygon points="25.8,18.3 27.7,18.3 29.8,15.3 31.5,18.3 35.8,18.3 33.8,14.8 32.7,12.9 35.4,8.8 33.3,8.8 31.7,11.2 30.4,8.8 
		26.4,8.8 29.1,13.6 	"/>
	<path d="M27.8,25.6c0.1,0,0.1-0.1,0.1-0.2s0-0.2-0.1-0.3c-0.1,0-0.2-0.1-0.4-0.1h-0.2v0.7h0.2C27.6,25.7,27.7,25.6,27.8,25.6z"/>
	<polygon points="23.9,26.2 24.8,26.2 24.4,25.2 	"/>
	<polygon points="26.5,19.1 26.5,21.4 24.4,19.1 23.6,19.1 23.6,22.9 24.5,22.9 24.5,20.4 26.6,22.9 27.1,22.9 27.4,22.9 27.4,19.1 
		27.1,19.1 	"/>
	<path d="M17.2,18c0.2,0.1,0.4,0.2,0.5,0.2c0.6,0.2,2.6,0.1,2.8,0l0.8-1.5c-0.2,0-0.3,0-0.4,0c-0.7,0-1.2-0.6-1.2-1.3
		c0-0.7,0.6-1,1.1-1.2l0.6-0.3v0.7c0,0.8,0,1.5,0.3,2.2c0.2,0.4,0.5,0.7,0.6,0.8c0.1,0,0.4,0.4,1,0.6c1,0.4,2,0.1,2.3,0l0.1-0.1
		l1-1.5c-1.7,0-1.7-1.1-1.7-2.5v-1.6c0-1.2-0.1-2.3-1.1-3.1C23,9,21.9,8.8,21,8.8c-0.9,0-1.7,0.1-2.5,0.3l-0.9,2.3
		c0.7-0.4,1.7-0.7,2.5-0.7c0.5,0,1.3,0.2,1.3,0.8c0,1.7-5.5,0.5-5.5,4.1C15.8,16.6,16.4,17.5,17.2,18z"/>
	<polygon points="23,19.8 23,19.1 20.2,19.1 20.2,22.9 23.1,22.9 23.1,22.2 21.2,22.2 21.2,21.3 22.9,21.3 22.9,20.6 21.2,20.6 
		21.2,19.8 	"/>
	<path d="M17.7,22.9c0.6,0,1.1-0.1,1.4-0.4c0.3-0.3,0.5-0.7,0.5-1.3v-2.2h-1v2.1c0,0.3-0.1,0.5-0.3,0.7c-0.2,0.2-0.4,0.2-0.7,0.2
		s-0.5-0.1-0.7-0.2c-0.2-0.2-0.3-0.4-0.3-0.6v-2.2h-1v2.2c0,0.5,0.2,1,0.5,1.3C16.6,22.8,17.1,22.9,17.7,22.9z"/>
	<path d="M16.7,24.9c0,0-0.1,0-0.2,0c-0.1,0-0.2,0-0.2,0.1c-0.1,0-0.1,0.1-0.1,0.2c0,0,0,0.1,0,0.1c0,0,0.1,0.1,0.1,0.1
		c0,0,0.1,0.1,0.1,0.1c0.2-0.1,0.3-0.2,0.3-0.3C16.9,25.1,16.9,25.1,16.7,24.9C16.8,25,16.8,25,16.7,24.9z"/>
	<path d="M16,26.5c0,0.1,0,0.1,0.1,0.2s0.2,0.1,0.3,0.1c0.1,0,0.3,0,0.4-0.1l-0.5-0.5C16.1,26.3,16,26.4,16,26.5z"/>
	<path d="M13.9,19.8c0.4,0,0.9,0.1,1.3,0.4v-0.9c-0.4-0.2-0.8-0.3-1.4-0.3c-0.7,0-1.2,0.2-1.7,0.6s-0.6,0.9-0.6,1.4s0.2,1,0.6,1.4
		c0.4,0.4,0.9,0.6,1.6,0.6c0.5,0,1-0.1,1.5-0.4v-0.8c-0.4,0.2-0.6,0.3-0.8,0.3c-0.2,0-0.4,0.1-0.6,0.1c-0.4,0-0.7-0.1-1-0.3
		c-0.2-0.2-0.4-0.5-0.4-0.8c0-0.3,0.1-0.6,0.4-0.8C13.2,19.9,13.5,19.8,13.9,19.8z"/>
	<path d="M9.7,22.2c-0.2,0-0.4,0-0.6-0.1c-0.1,0-0.1,0-0.2-0.1c-0.2-0.1-0.3-0.2-0.5-0.3v0.8c0.2,0.1,0.3,0.2,0.5,0.2
		c0.3,0.1,0.6,0.2,0.9,0.2c0.4,0,0.8-0.1,1.1-0.3c0.3-0.2,0.4-0.5,0.4-0.9c0-0.2-0.1-0.4-0.2-0.6c-0.1-0.2-0.3-0.3-0.4-0.4
		c-0.2-0.1-0.4-0.2-0.7-0.3c-0.3-0.1-0.5-0.2-0.5-0.2c-0.1-0.1-0.1-0.1-0.1-0.2c0-0.1,0.1-0.2,0.2-0.2s0.2-0.1,0.4-0.1
		c0.3,0,0.7,0.1,1.2,0.3v-0.8c-0.5-0.2-0.9-0.3-1.3-0.3c-0.4,0-0.6,0.1-0.9,0.2c-0.1,0-0.1,0.1-0.2,0.1c-0.3,0.2-0.4,0.5-0.4,0.8
		c0,0.3,0.1,0.5,0.2,0.6c0.1,0.1,0.2,0.3,0.4,0.3c0,0,0,0,0,0c0.2,0.1,0.4,0.2,0.7,0.3c0.3,0.1,0.5,0.2,0.5,0.2
		c0.1,0.1,0.1,0.2,0.1,0.2C10.3,22.1,10.1,22.2,9.7,22.2z"/>
	<polygon points="5.8,26.2 6.6,26.2 6.2,25.2 	"/>
	<polygon points="8,19.8 8,19.1 5.2,19.1 5.2,22.9 8,22.9 8,22.2 6.1,22.2 6.1,21.3 7.9,21.3 7.9,20.6 6.1,20.6 6.1,19.8 	"/>
	<path d="M0.9,18.3h3.5v-3.5v-1.7c0-0.8-0.2-2.2,1.1-2.2c1.2,0,1.1,1.3,1.1,2.2v1.7v3.5h2.4h1v-5.6c0-0.8-0.1-1.9,1.1-1.9
		c1.1,0,1,1.1,1,1.9v5.6h3.5v-2.7v-3.6c0-1-0.2-1.8-1-2.5c-0.7-0.5-1.6-0.8-2.4-0.8C11,8.8,9.9,9.2,9.2,10C8.6,9.2,7.8,8.8,6.8,8.8
		c-1,0-1.8,0.4-2.4,1.2V8.8H0.8l0,6L0.9,18.3z"/>
	<path d="M2.6,19.1H0.9v3.8h1.6c0.7,0,1.3-0.2,1.6-0.5C4.5,22,4.7,21.6,4.7,21c0-0.6-0.2-1-0.6-1.4S3.2,19.1,2.6,19.1z M3.4,21.8
		c-0.2,0.2-0.5,0.3-0.9,0.3H1.8v-2.4h0.6c0.4,0,0.7,0.1,0.9,0.3c0.2,0.2,0.3,0.5,0.3,0.9C3.7,21.3,3.6,21.6,3.4,21.8z"/>
	<path d="M8.9,23.6H0.8v3.5v0.9h35v-4.5h-8.7H8.9z M4,27.1c-0.1,0-0.2,0.1-0.4,0.1c-0.1,0-0.2,0-0.4,0c-0.2,0-0.5,0-0.6-0.1
		c0,0,0,0,0,0c-0.2-0.1-0.3-0.2-0.5-0.3c-0.1-0.1-0.2-0.3-0.3-0.5c-0.1-0.2-0.1-0.4-0.1-0.6c0-0.2,0-0.4,0.1-0.6
		c0.1-0.2,0.2-0.3,0.3-0.4c0.1-0.1,0.3-0.2,0.5-0.3c0.2-0.1,0.4-0.1,0.6-0.1c0.3,0,0.7,0.1,1,0.2v0.7c-0.1-0.1-0.3-0.2-0.4-0.2
		c-0.1,0-0.3-0.1-0.5-0.1c-0.2,0-0.3,0-0.5,0.1c-0.1,0.1-0.2,0.2-0.3,0.3c-0.1,0.1-0.1,0.3-0.1,0.4c0,0.1,0,0.3,0.1,0.4
		c0.1,0.1,0.2,0.2,0.3,0.3c0.1,0.1,0.3,0.1,0.4,0.1c0.1,0,0.3,0,0.4,0c0.1,0,0.2-0.1,0.3-0.1c0.1,0,0.2-0.1,0.2-0.1V27
		C4.2,27.1,4.1,27.1,4,27.1C4,27.1,4,27.1,4,27.1z M6.8,26.7H5.6l-0.2,0.5H4.6l1.2-2.6h0.9l1.2,2.6H7L6.8,26.7z M10,26.9
		c-0.1,0.1-0.2,0.2-0.4,0.3c-0.2,0.1-0.3,0.1-0.5,0.1c-0.1,0-0.1,0-0.2,0c-0.1,0-0.2,0-0.3-0.1c0,0-0.1,0-0.1,0
		c-0.1,0-0.2-0.1-0.3-0.1v-0.7c0.1,0.1,0.3,0.2,0.4,0.2c0.1,0,0.2,0.1,0.4,0.1v0c0,0,0,0,0.1,0c0.1,0,0.2,0,0.3-0.1
		c0,0,0.1-0.1,0.1-0.1c0-0.1,0-0.1-0.1-0.2c-0.1,0-0.1-0.1-0.3-0.1c0,0,0,0,0,0c-0.1-0.1-0.3-0.1-0.4-0.2c-0.1-0.1-0.2-0.2-0.3-0.3
		c-0.1-0.1-0.1-0.2-0.1-0.4c0-0.1,0-0.3,0.1-0.4c0.1-0.1,0.2-0.2,0.3-0.3c0.1,0,0.2-0.1,0.4-0.1c0.1,0,0.1,0,0.2,0
		c0.2,0,0.3,0,0.4,0c0.1,0,0.2,0.1,0.3,0.1c0.1,0,0.2,0.1,0.2,0.1v0.6c-0.1-0.1-0.2-0.2-0.4-0.2C9.5,25,9.4,25,9.2,25
		C9.1,25,9,25,9,25.1c0,0-0.1,0.1-0.1,0.1c0,0,0,0,0,0c0,0,0,0,0,0c0,0,0,0.1,0.1,0.1c0,0,0.1,0.1,0.2,0.1c0.2,0.1,0.4,0.2,0.5,0.3
		C9.9,25.8,10,25.9,10,26s0.1,0.2,0.1,0.4C10.2,26.6,10.1,26.7,10,26.9z M13.6,27.2h-0.8v-1.1h-1.2v1.1h-0.8v-2.7h0.8v1h1.2v-1h0.8
		V27.2z M18.2,27.2h-0.9L17.1,27c-0.1,0.1-0.2,0.1-0.4,0.2c-0.1,0-0.3,0.1-0.4,0.1c-0.3,0-0.5-0.1-0.7-0.2c-0.2-0.1-0.2-0.3-0.2-0.5
		c0-0.1,0-0.3,0.1-0.4c0.1-0.1,0.2-0.2,0.5-0.4c-0.1-0.1-0.1-0.1-0.2-0.2c-0.1-0.1-0.1-0.1-0.1-0.2c0-0.1,0-0.1,0-0.2
		c0-0.1,0-0.2,0.1-0.4c0.1-0.1,0.2-0.2,0.3-0.3c0.1-0.1,0.3-0.1,0.5-0.1c0.1,0,0.3,0,0.4,0.1c0.1,0,0.2,0.1,0.3,0.2
		c0.1,0.1,0.1,0.1,0.2,0.2c0,0.1,0,0.2,0,0.2c0,0.1,0,0.3-0.1,0.4c-0.1,0.1-0.2,0.2-0.4,0.3l0.4,0.4c0.1-0.1,0.2-0.2,0.3-0.4h0.7
		c-0.2,0.3-0.4,0.6-0.6,0.8L18.2,27.2z M22.5,27c-0.1,0-0.2,0.1-0.3,0.1c-0.1,0-0.2,0.1-0.4,0.1c-0.1,0-0.2,0-0.4,0
		c-0.2,0-0.5,0-0.6-0.1c-0.2-0.1-0.3-0.2-0.5-0.3s-0.2-0.3-0.3-0.5s-0.1-0.4-0.1-0.6c0-0.2,0-0.4,0.1-0.6c0.1-0.2,0.2-0.3,0.3-0.4
		c0.2-0.1,0.3-0.2,0.5-0.3c0.2-0.1,0.4-0.1,0.6-0.1c0.3,0,0.7,0.1,1.1,0.2v0.7c-0.1-0.1-0.3-0.2-0.4-0.2c-0.1,0-0.3-0.1-0.5-0.1
		c-0.2,0-0.3,0-0.5,0.1c-0.1,0.1-0.2,0.2-0.3,0.3c-0.1,0.1-0.1,0.3-0.1,0.4c0,0.1,0,0.3,0.1,0.4c0.1,0.1,0.2,0.2,0.3,0.3
		c0.1,0.1,0.3,0.1,0.4,0.1c0.1,0,0.3,0,0.4,0c0.1,0,0.2-0.1,0.3-0.1c0.1,0,0.2-0.1,0.2-0.1V27z M25.2,27.2l-0.2-0.5h-1.2l-0.2,0.5
		h-0.8l1.2-2.7h0.9l1.2,2.7H25.2z M32.8,24.5l0.6,0.9l0.6-0.9H35L33.9,26v1.2h-0.8V26L32,24.5H32.8z M29.4,24.5h1.4
		c0.2,0,0.4,0,0.6,0.1c0.1,0.1,0.2,0.2,0.3,0.3s0.1,0.3,0.1,0.4c0,0.1,0,0.2-0.1,0.3c-0.1,0.1-0.1,0.2-0.2,0.2
		c-0.1,0-0.1,0.1-0.2,0.1c0.1,0,0.2,0.1,0.2,0.2c0.1,0.1,0.1,0.2,0.2,0.4l0.3,0.6h-0.9l-0.2-0.5c-0.1-0.2-0.1-0.3-0.2-0.4
		c-0.1-0.1-0.1-0.1-0.2-0.2c-0.1,0-0.1,0-0.2,0h-0.1v1h-0.8V24.5z M27.8,24.5c0.2,0,0.4,0,0.6,0.1c0.1,0.1,0.2,0.2,0.3,0.3
		c0.1,0.1,0.1,0.3,0.1,0.4c0,0.1,0,0.2-0.1,0.3c0,0.1-0.1,0.2-0.2,0.2c0,0-0.1,0.1-0.2,0.1c0.1,0,0.2,0.1,0.2,0.2
		c0.1,0.1,0.1,0.2,0.2,0.4l0.3,0.6h-0.9l-0.2-0.5c-0.1-0.2-0.1-0.3-0.2-0.4c-0.1-0.1-0.1-0.1-0.2-0.2c-0.1,0-0.1,0-0.2,0h-0.1v1v0
		h-0.8v-2.7h0.8H27.8z"/>
</g>
</svg>
