<?xml version="1.0" encoding="utf-8"?>
<!-- Generator: Adobe Illustrator 19.2.0, SVG Export Plug-In . SVG Version: 6.00 Build 0)  -->
<svg version="1.1" id="Capa_1" xmlns="http://www.w3.org/2000/svg" xmlns:xlink="http://www.w3.org/1999/xlink" x="0px" y="0px"
	 viewBox="0 0 36.8 36.1" style="enable-background:new 0 0 36.8 36.1;" xml:space="preserve">
<style type="text/css">
	.st0{fill-rule:evenodd;clip-rule:evenodd;}
	.st1{opacity:0.7709;}
	.st2{enable-background:new    ;}
	.st3{clip-path:url(#SVGID_12_);}
	.st4{clip-path:url(#SVGID_14_);}
	.st5{clip-path:url(#SVGID_16_);}
</style>
<g>
	<path d="M34.8,32H2.1c-0.5,0-0.8-0.4-0.8-0.8s0.4-0.8,0.8-0.8h32.6c0.5,0,0.8,0.4,0.8,0.8S35.2,32,34.8,32z"/>
	<path d="M26.6,18.9H2.1c-0.5,0-0.8-0.4-0.8-0.8s0.4-0.8,0.8-0.8h24.5c0.5,0,0.8,0.4,0.8,0.8S27.1,18.9,26.6,18.9z"/>
	<path d="M34.8,5.9H2.1c-0.5,0-0.8-0.4-0.8-0.8c0-0.5,0.4-0.8,0.8-0.8h32.6c0.5,0,0.8,0.4,0.8,0.8C35.6,5.5,35.2,5.9,34.8,5.9z"/>
</g>
</svg>
