<?xml version="1.0" encoding="utf-8"?>
<!-- Generator: Adobe Illustrator 19.2.0, SVG Export Plug-In . SVG Version: 6.00 Build 0)  -->
<svg version="1.1" id="Capa_1" xmlns="http://www.w3.org/2000/svg" xmlns:xlink="http://www.w3.org/1999/xlink" x="0px" y="0px"
	 viewBox="0 0 36.8 36.1" style="enable-background:new 0 0 36.8 36.1;" xml:space="preserve">
<style type="text/css">
	.st0{fill-rule:evenodd;clip-rule:evenodd;}
	.st1{opacity:0.7709;}
	.st2{enable-background:new    ;}
	.st3{clip-path:url(#SVGID_12_);}
	.st4{clip-path:url(#SVGID_14_);}
	.st5{clip-path:url(#SVGID_16_);}
</style>
<path d="M34.6,26.9c0-4.2-3.9-7.8-9.5-9.4c1.8-1.7,3-4.2,3-6.9c0-5.3-4.4-9.6-9.8-9.6s-9.8,4.3-9.8,9.6c0,2.7,1.1,5.1,3,6.9
	C5.8,19.1,2,22.7,2,26.9c0,0.1,0,0.2,0,0.2c0,0.1,0,0.1,0,0.2V32c0,1.3,1.2,2.8,2.7,2.8h27.5c1.4,0,2.4-1.2,2.4-2.8v-4.6
	c0-0.1,0-0.2,0-0.2C34.6,27.1,34.6,27,34.6,26.9z M12.1,10.7c0-3.3,2.8-6,6.2-6s6.2,2.7,6.2,6c0,3.3-2.7,5.9-6.1,5.9
	c0,0-0.1,0-0.1,0c0,0-0.1,0-0.1,0C14.9,16.6,12.1,13.9,12.1,10.7z M31,31.2H5.6v-3.8c0-0.1,0-0.2,0-0.2c0-0.1,0-0.1,0-0.2
	c0-3.9,6.6-6.6,12.6-6.7c0,0,0.1,0,0.1,0c0,0,0.1,0,0.1,0c6,0,12.6,2.7,12.6,6.7c0,0.1,0,0.2,0,0.2c0,0.1,0,0.1,0,0.2L31,31.2z"/>
</svg>
