<?xml version="1.0" encoding="utf-8"?>
<!-- Generator: Adobe Illustrator 19.2.0, SVG Export Plug-In . SVG Version: 6.00 Build 0)  -->
<svg version="1.1" id="Capa_1" xmlns="http://www.w3.org/2000/svg" xmlns:xlink="http://www.w3.org/1999/xlink" x="0px" y="0px"
	 viewBox="0 0 36.8 36.1" style="enable-background:new 0 0 36.8 36.1;" xml:space="preserve">
<style type="text/css">
	.st0{fill-rule:evenodd;clip-rule:evenodd;}
	.st1{opacity:0.7709;}
	.st2{enable-background:new    ;}
	.st3{clip-path:url(#SVGID_12_);}
	.st4{clip-path:url(#SVGID_14_);}
	.st5{clip-path:url(#SVGID_16_);}
</style>
<g>
	<path d="M26.1,5c2.3,0,4.3,0.9,6,2.6c1.7,1.7,2.6,3.7,2.6,6c0,2.3-0.9,4.3-2.6,6l-13.7,12l-13.7-12c-1.7-1.7-2.6-3.7-2.6-6
		c0-2.3,0.9-4.3,2.6-6S8.4,5,10.7,5c2.3,0,4.3,0.9,6,2.6l1.7,1.7l1.7-1.7C21.8,5.9,23.8,5,26.1,5z M30.6,9.1
		c-1.3-1.3-2.8-1.9-4.5-1.9c-1.7,0-3.2,0.6-4.5,1.9l-3.2,3.2l-3.2-3.2c-1.3-1.3-2.8-1.9-4.5-1.9S7.5,7.8,6.2,9.1s-1.9,2.8-1.9,4.5
		s0.6,3.2,1.9,4.5l12.3,10.7L30.7,18c1.3-1.3,1.9-2.8,1.9-4.5S31.9,10.4,30.6,9.1z"/>
</g>
</svg>
