<?xml version="1.0" encoding="utf-8"?>
<!-- Generator: Adobe Illustrator 19.2.0, SVG Export Plug-In . SVG Version: 6.00 Build 0)  -->
<svg version="1.1" id="Capa_1" xmlns="http://www.w3.org/2000/svg" xmlns:xlink="http://www.w3.org/1999/xlink" x="0px" y="0px"
	 viewBox="0 0 36.8 36.1" style="enable-background:new 0 0 36.8 36.1;" xml:space="preserve">
<style type="text/css">
	.st0{fill-rule:evenodd;clip-rule:evenodd;}
	.st1{opacity:0.7709;}
	.st2{enable-background:new    ;}
	.st3{clip-path:url(#SVGID_12_);}
	.st4{clip-path:url(#SVGID_14_);}
	.st5{clip-path:url(#SVGID_16_);}
</style>
<g>
	<path d="M34.8,17.7c0,0.4-0.3,0.8-0.8,0.8c-0.4,0-0.8-0.3-0.8-0.8l-0.4,0c0,0.7,0.6,1.2,1.2,1.2c0.7,0,1.2-0.6,1.2-1.2L34.8,17.7z"
		/>
	<path d="M35.1,15.2c-0.5-0.7-1-1.7-1-1.7l-0.2-0.4l-0.2,0.4c0,0-0.5,0.9-0.9,1.7c-0.7,1-1,1.8-1,2.4c0,1.4,0.9,2.3,2.1,2.3
		c1.3,0,2.1-1,2.1-2.3C36.1,17,35.8,16.2,35.1,15.2z M34,19.5c-0.8,0-1.7-0.5-1.7-1.8c0-0.3,0.2-1,0.9-2.2c0.3-0.5,0.6-1,0.7-1.3
		c0.2,0.3,0.5,0.9,0.8,1.3c0.8,1.2,0.9,1.8,0.9,2.2C35.7,19,34.8,19.5,34,19.5z"/>
	<path d="M31,20.6c-0.5,0-0.6-0.4-0.6-0.5c0-0.2-0.1-0.4-0.1-0.7l-0.1-5.9l-2,0l0.1,6.3c0,0.8,0.2,1.4,0.6,1.8
		c0.4,0.4,1,0.5,1.7,0.5c0.2,0,0.3,0,0.5,0l0-1.6C31.1,20.6,31,20.6,31,20.6z"/>
	<path d="M24.7,15.9c-1.9,0-3.2,1.3-3.2,3.2c0,1.9,1.4,3.2,3.4,3.2c1,0,2-0.5,2.5-1.2l0,0l-1.3-1l0,0c-0.4,0.5-0.8,0.6-1.3,0.6
		c-1.2,0-1.4-1-1.4-1l4.3,0v-0.6C27.8,17.2,26.5,15.9,24.7,15.9z M23.4,18.4l0-0.1c0.1-0.5,0.5-1,1.3-1c0.3,0,0.6,0.1,0.8,0.3
		c0.2,0.2,0.3,0.4,0.3,0.7l0,0.1L23.4,18.4z"/>
	<path d="M21,16c-0.8,0-1.4,0.5-1.7,1.1l0,0l0-0.9l-2,0l0.1,6l2,0l0-3c0-0.5,0.4-1.4,1.5-1.4c0.2,0,0.4,0,0.6,0.1l0-1.8
		C21.3,16,21.1,15.9,21,16z"/>
	<path d="M14.4,16.2l0,0.8l-0.1-0.1c-0.3-0.4-0.9-0.8-1.7-0.8c-1.7,0-2.8,1.3-2.7,3.1c0,1.8,1.2,3.2,2.8,3.2c0.8,0,1.4-0.3,1.7-0.9
		l0,0h0l0,0.7l2,0l-0.1-6L14.4,16.2z M13.2,20.7c-0.8,0-1.3-0.6-1.4-1.4c0-0.9,0.5-1.5,1.3-1.5c0.8,0,1.3,0.6,1.3,1.4
		C14.5,20.1,14,20.7,13.2,20.7z"/>
	<path d="M9.5,20.8c-0.5,0-0.6-0.4-0.6-0.5c0-0.2-0.1-0.4-0.1-0.7l-0.1-5.8l-2,0l0.1,6.3c0,0.8,0.2,1.4,0.7,1.8
		c0.4,0.4,1,0.5,1.7,0.5c0.1,0,0.3,0,0.5,0l0-1.6C9.6,20.8,9.6,20.8,9.5,20.8z"/>
	<path d="M5,20.8c-0.9,0-1.6-0.6-1.6-1.5c0-0.9,0.6-1.5,1.5-1.5c0.4,0,0.8,0.2,1.1,0.4l0-1.8c-0.4-0.2-0.9-0.3-1.4-0.3
		c-1.9,0-3.3,1.4-3.3,3.3c0,1.8,1.5,3.1,3.3,3.1c0.5,0,1-0.1,1.5-0.4l0-1.8C5.8,20.6,5.4,20.8,5,20.8z"/>
</g>
</svg>
