<?xml version="1.0" encoding="utf-8"?>
<!-- Generator: Adobe Illustrator 21.0.0, SVG Export Plug-In . SVG Version: 6.00 Build 0)  -->
<svg version="1.1" id="Capa_1" xmlns="http://www.w3.org/2000/svg" xmlns:xlink="http://www.w3.org/1999/xlink" x="0px" y="0px"
	 viewBox="0 0 36.8 36.1" style="enable-background:new 0 0 36.8 36.1;" xml:space="preserve">
<g>
	<g id="XMLID_1_">
		<path d="M18.6,33.1l15.6-14.5H2.2c-0.3,0-0.5-0.2-0.5-0.5s0.3-0.5,0.5-0.5h32.1L18.5,2.7c-0.2-0.2-0.2-0.5,0-0.7
			c0.1-0.2,0.3-0.2,0.4-0.2c0.1,0,0.1,0,0.2,0.1c0,0,0.1,0,0.1,0.1l16.7,15.6c0.1,0.2,0.2,0.3,0.2,0.4v0.2c0,0.2-0.1,0.4-0.3,0.5
			L19.3,33.8c-0.2,0.2-0.6,0.2-0.7,0C18.4,33.6,18.4,33.3,18.6,33.1z"/>
	</g>
</g>
</svg>
