<?xml version="1.0" encoding="utf-8"?>
<!-- Generator: Adobe Illustrator 19.2.0, SVG Export Plug-In . SVG Version: 6.00 Build 0)  -->
<svg version="1.1" id="Capa_1" xmlns="http://www.w3.org/2000/svg" xmlns:xlink="http://www.w3.org/1999/xlink" x="0px" y="0px"
	 viewBox="0 0 36.8 36.1" style="enable-background:new 0 0 36.8 36.1;" xml:space="preserve">
<style type="text/css">
	.st0{fill-rule:evenodd;clip-rule:evenodd;}
	.st1{opacity:0.7709;}
	.st2{enable-background:new    ;}
	.st3{clip-path:url(#SVGID_12_);}
	.st4{clip-path:url(#SVGID_14_);}
	.st5{clip-path:url(#SVGID_16_);}
</style>
<g>
	<path d="M18.4,9.3c-3,0-5.5,2.5-5.5,5.5c0,3,2.5,5.5,5.5,5.5c3.1,0,5.5-2.5,5.5-5.5C24,11.8,21.5,9.3,18.4,9.3z M18.4,18.8
		c-2.2,0-3.9-1.8-3.9-3.9c0-2.2,1.8-4,3.9-4c2.2,0,4,1.8,4,4C22.4,17,20.6,18.8,18.4,18.8z"/>
	<path d="M18.5,0.6C8.8,0.6,1,8.4,1,18c0,3.8,1.2,7.3,3.3,10.2C4.5,28.5,4.7,28.8,5,29c3.2,3.9,8.1,6.4,13.5,6.4
		c5.4,0,10.3-2.5,13.5-6.4c0.2-0.3,0.5-0.6,0.7-0.9c2.1-2.9,3.3-6.4,3.3-10.2C35.9,8.4,28.1,0.6,18.5,0.6z M18.5,33.8
		C14,33.8,10,32,7.1,29h0.2c0-2.6,6.7-4.7,11.1-4.7c4.4,0,11.1,2.1,11.1,4.7h0.2C26.9,32,22.9,33.8,18.5,33.8z M31.9,26.3
		c-0.3,0.5-0.6,1-1,1.5c-1.4-3.4-8.6-5.1-12.4-5.1c-3.8,0-11,1.7-12.4,5.1c-0.4-0.5-0.7-0.9-1-1.4c-1.5-2.4-2.4-5.3-2.4-8.4
		c0-8.7,7.1-15.8,15.9-15.8c8.7,0,15.9,7.1,15.9,15.8C34.3,21.1,33.4,23.9,31.9,26.3z"/>
</g>
</svg>
