<?xml version="1.0" encoding="utf-8"?>
<!-- Generator: Adobe Illustrator 19.2.0, SVG Export Plug-In . SVG Version: 6.00 Build 0)  -->
<svg version="1.1" id="Capa_1" xmlns="http://www.w3.org/2000/svg" xmlns:xlink="http://www.w3.org/1999/xlink" x="0px" y="0px"
	 viewBox="0 0 36.8 36.1" style="enable-background:new 0 0 36.8 36.1;" xml:space="preserve">
<style type="text/css">
	.st0{fill-rule:evenodd;clip-rule:evenodd;}
	.st1{opacity:0.7709;}
	.st2{enable-background:new    ;}
	.st3{clip-path:url(#SVGID_12_);}
	.st4{clip-path:url(#SVGID_14_);}
	.st5{clip-path:url(#SVGID_16_);}
</style>
<g>
	<path class="st0" d="M4.4,19c-0.8,0-2.1-0.1-2.8,0c-0.1,0-0.2,0-0.2,0.1c0.2,0.2,0.5,0.1,0.9,0.1h1.9c0.3,0,0.7,0.1,0.9-0.1
		C5,19,4.7,19,4.4,19z"/>
	<path class="st0" d="M3.5,19.8c-0.6,0-1.4,0-1.8,0.1c0,0-0.1,0-0.1,0.1c0.1,0.2,0.5,0.1,0.8,0.1h1.9c0.3,0,0.6,0.1,0.8-0.2
		C4.6,19.8,4.1,19.8,3.5,19.8z"/>
	<path class="st0" d="M2.3,22c-0.8,0.1-0.7,1.2,0,1.3C3.3,23.5,3.2,21.9,2.3,22z M2.3,23c-0.3,0-0.4-0.6,0-0.7
		C2.9,22.2,2.8,23.1,2.3,23z"/>
	<path class="st0" d="M4.5,22C4.5,22,4.5,22,4.5,22c-0.8,0.2-0.7,1.3,0,1.3C5.5,23.5,5.5,21.9,4.5,22z M4.2,22.7
		c0-0.2,0.1-0.3,0.3-0.3c0.3-0.1,0.4,0.1,0.4,0.2C5.1,23.1,4.2,23.3,4.2,22.7z"/>
	<path class="st0" d="M7.9,16.2c0-0.3-0.4-0.4-0.6-0.4c-0.6,0.1-1,0.9-0.9,1.5c0.2,0.1,0.3-0.2,0.4-0.2c0.1-0.2,0.2-0.4,0.4-0.4
		C7.5,16.6,7.9,16.7,7.9,16.2z M7,16.4C7,16.2,7.4,16,7.5,16.3C7.4,16.4,7.1,16.3,7,16.4z"/>
	<path class="st0" d="M5.5,17.9c-0.4,0.3-1.3,0.2-2,0.2c-0.9,0-1.8,0.1-2.3-0.2c-0.3-0.2-0.3-0.5-0.7-0.5c-0.3,0,0.1,1.3,0.1,1.5
		c0.2,0.9,0.3,1.8,1.2,2c1.1,0.2,2.3-0.2,3.2,0.1c-0.6,0.2-1.4,0.2-2.3,0.2c-0.4,0-1.5-0.1-1.5,0.3c0,0.3,1.1,0.2,1.6,0.2
		c0.9,0,2.4,0.2,2.7-0.4c0.1-0.2,0.2-0.7,0.2-0.9c0.2-0.7,0.3-1.2,0.4-1.9c0.1-0.3,0.2-0.7,0-1C5.8,17.4,5.8,17.8,5.5,17.9z
		 M5.3,20.7c-0.4-0.3-1.2-0.2-2-0.2c-1,0-1.9,0.2-2.2-0.5C1.1,19.7,1,19.3,1,19c-0.1-0.4-0.2-0.7-0.2-1c0.2,0.3,0.7,0.5,1.3,0.5
		c0.8,0,2.1,0.1,2.9,0c0.4-0.1,0.8-0.2,1-0.4C5.8,18.9,5.5,19.7,5.3,20.7z"/>
	<path class="st0" d="M11.2,21.4c-0.3,0-0.6,0.3-1.2,0.3c-0.9,0-1.4-0.8-1.4-1.6c0-0.9,0.5-1.7,1.4-1.7c0.6,0,0.8,0.3,1.1,0.3
		c0.3,0,0.5-0.2,0.5-0.5c0-0.7-1.1-0.8-1.6-0.8c-1.5,0-2.6,1.2-2.6,2.7c0,1.5,1,2.7,2.6,2.7c0.5,0,1.7-0.2,1.7-0.9
		C11.7,21.7,11.5,21.4,11.2,21.4z"/>
	<path class="st0" d="M15.3,18.7c-0.3,0-0.5,0.2-0.5,0.4c-0.2-0.3-0.6-0.5-1-0.5c-1,0-1.8,0.9-1.8,2.1c0,1.2,0.8,2,1.8,2
		c0.4,0,0.7-0.2,1-0.5c0.1,0.3,0.2,0.5,0.5,0.5c0.5,0,0.5-0.4,0.5-0.7v-2.6C15.8,19.1,15.8,18.7,15.3,18.7z M13.9,21.8
		c-0.6,0-0.8-0.6-0.8-1.1c0-0.5,0.3-1.1,0.8-1.1c0.6,0,0.8,0.6,0.8,1.1C14.8,21.2,14.5,21.8,13.9,21.8z"/>
	<path class="st0" d="M19.6,17c-0.3,0-0.5,0.2-0.5,0.6V19c-0.3-0.2-0.6-0.4-1-0.4c-1.2,0-1.7,1.1-1.7,2.1c0,1,0.7,2,1.8,2
		c0.4,0,0.8-0.2,1-0.5c0.1,0.3,0.2,0.4,0.5,0.4c0.3,0,0.5-0.2,0.5-0.6v-4.6C20.1,17.2,19.9,17,19.6,17z M18.2,21.8
		c-0.6,0-0.8-0.6-0.8-1.1c0-0.5,0.3-1.1,0.8-1.1c0.6,0,0.8,0.5,0.8,1C19,21.2,18.8,21.8,18.2,21.8z"/>
	<path class="st0" d="M23.9,18.7c-0.3,0-0.5,0.2-0.5,0.4c-0.2-0.3-0.6-0.5-1-0.5c-1,0-1.8,0.9-1.8,2.1c0,1.2,0.8,2,1.8,2
		c0.4,0,0.7-0.2,1-0.5c0.1,0.3,0.2,0.5,0.5,0.5c0.5,0,0.5-0.4,0.5-0.7v-2.6C24.4,19.1,24.4,18.7,23.9,18.7z M22.5,21.8
		c-0.6,0-0.8-0.6-0.8-1.1c0-0.5,0.3-1.1,0.8-1.1c0.6,0,0.8,0.6,0.8,1.1C23.3,21.2,23,21.8,22.5,21.8z"/>
	<path class="st0" d="M30.1,17c-0.3,0-0.5,0.2-0.5,0.6V19c-0.3-0.2-0.6-0.4-1-0.4c-1.2,0-1.7,1.1-1.7,2.1c0,1,0.7,2,1.8,2
		c0.4,0,0.8-0.2,1-0.5c0.1,0.3,0.2,0.4,0.5,0.4c0.3,0,0.5-0.2,0.5-0.6v-4.6C30.6,17.2,30.4,17,30.1,17z M28.7,21.8
		c-0.6,0-0.8-0.6-0.8-1.1c0-0.5,0.3-1.1,0.8-1.1c0.6,0,0.8,0.5,0.8,1C29.6,21.2,29.3,21.8,28.7,21.8z"/>
	<path class="st0" d="M31.8,18.7c-0.3,0-0.5,0.2-0.5,0.6v2.8c0,0.4,0.2,0.6,0.5,0.6c0.3,0,0.5-0.2,0.5-0.6v-2.8
		C32.3,18.9,32.1,18.7,31.8,18.7z"/>
	<path class="st0" d="M32.3,17c-0.1,0-0.2,0-0.3,0.1l-0.9,0.4l-0.1,0c-0.1,0.1-0.2,0.2-0.2,0.3c0,0.3,0.2,0.5,0.4,0.5
		c0.1,0,0.1,0,0.3-0.1l0.8-0.3c0.2-0.1,0.3-0.2,0.3-0.4C32.7,17.2,32.5,17,32.3,17z"/>
	<path class="st0" d="M36,18.7c-0.3,0-0.5,0.2-0.5,0.4c-0.2-0.3-0.6-0.5-1-0.5c-1,0-1.8,0.9-1.8,2.1c0,1.2,0.8,2,1.8,2
		c0.4,0,0.7-0.2,1-0.5c0.1,0.3,0.2,0.5,0.5,0.5c0.5,0,0.5-0.4,0.5-0.7v-2.6C36.6,19.1,36.6,18.7,36,18.7z M34.7,21.8
		c-0.6,0-0.8-0.6-0.8-1.1c0-0.5,0.3-1.1,0.8-1.1c0.6,0,0.8,0.6,0.8,1.1C35.5,21.2,35.2,21.8,34.7,21.8z"/>
</g>
</svg>
